<svg width="300" height="103" viewBox="0 0 300 103" fill="none" xmlns="http://www.w3.org/2000/svg">
<path d="M113 35.5C113.1 35.5 113.2 35.5 113.3 35.5C122.9 35.5 132.5 35.5 142.1 35.5C142.6 35.5 142.6 35.6 142.7 36C142.8 36.7 142.9 37.4 143.2 38.1C143.4 38.8 143.8 39.4 144.2 40C144.6 40.6 145 41 145.5 41.4C146.2 42 147 42.4 147.8 42.6C148.5 42.8 149.2 42.9 149.8 42.9C150.6 42.9 151.5 42.9 152.3 42.7C153.3 42.5 154.2 42.1 154.9 41.4C155.3 41.1 155.6 40.7 155.9 40.4C156.3 39.8 156.7 39.2 157 38.5C157.3 37.8 157.5 37 157.6 36.2C157.6 36.1 157.6 36.1 157.6 36.1C157.6 35.6 157.6 35.6 158.1 35.6C167.6 35.6 177.1 35.6 186.6 35.6C186.7 35.6 186.8 35.6 186.8 35.6C186.8 35.6 186.8 35.6 186.8 35.7C186.6 35.8 186.4 36 186.1 36.1C185.5 36.5 184.9 36.9 184.3 37.3C183.8 37.6 183.3 37.9 182.8 38.2C182.7 38.3 182.7 38.3 182.6 38.4C182.1 38.8 181.6 38.7 181.1 38.6C181 38.6 181 38.6 181 38.6C180.4 38.7 179.8 38.5 179.2 38.5C178.2 38.5 177.2 38.4 176.3 38.4C175.4 38.4 174.6 38.3 173.7 38.3C172.9 38.3 172 38.2 171.2 38.2C170.8 38.2 170.4 38.2 170 38.1C169.1 38 168.3 38 167.4 38C167 38 166.5 38 166.1 37.9C165.2 37.8 164.4 37.8 163.6 37.8C163.3 37.8 162.9 37.8 162.6 37.7C161.7 37.6 160.7 37.6 159.8 37.6C159.6 37.6 159.4 37.6 159.2 37.5C159 37.5 158.9 37.6 158.9 37.7C158.6 38.7 158.1 39.7 157.5 40.6C157.1 41.3 156.6 41.9 156 42.4C155.4 42.9 154.8 43.3 154.2 43.6C153.8 43.8 153.3 44 152.8 44.2C152.2 44.4 151.6 44.5 151 44.6C150.4 44.7 149.8 44.7 149.2 44.6C148.8 44.6 148.3 44.5 147.9 44.4C147.1 44.3 146.4 44 145.6 43.6C145 43.3 144.5 42.9 144 42.5C143.3 41.9 142.6 41.2 142.2 40.4C141.6 39.5 141.2 38.7 140.9 37.7C140.8 37.5 140.7 37.4 140.5 37.4C139.6 37.4 138.7 37.5 137.7 37.5C137 37.5 136.3 37.6 135.5 37.6C134.8 37.7 134 37.7 133.2 37.7C132.4 37.7 131.7 37.8 130.9 37.8C130.2 37.8 129.4 37.9 128.7 37.9C128 37.9 127.2 38 126.4 38C125.7 38 125 38.1 124.2 38.1C123.4 38.2 122.6 38.2 121.9 38.2C121.2 38.2 120.5 38.3 119.9 38.3C119.1 38.4 118.3 38.4 117.6 38.4C117.5 38.4 117.4 38.4 117.2 38.3C116.1 37.5 114.9 36.7 113.8 35.9C113.7 36.1 113.3 35.8 113 35.5Z" fill="#A3A3A3"/>
<path d="M154.8 46.9988C154.6 47.0988 154.2 47.1988 154 47.1988C153.3 47.3988 152.6 47.5988 151.9 47.5988C151.3 47.6988 150.7 47.6988 150.2 47.6988C148.9 47.5988 147.7 47.3988 146.5 46.9988C146.4 46.8988 146.3 46.9988 146.2 47.0988C145.9 47.6988 145.5 48.2988 145.2 48.8988C145 49.2988 144.8 49.5988 144.6 49.9988C144.5 50.0988 144.5 50.0988 144.4 50.0988C143.9 49.8988 143.4 49.5988 142.9 49.3988C142.8 49.2988 142.8 49.2988 142.8 49.1988C143.4 48.1988 144 47.1988 144.6 46.0988C144.7 45.9988 144.6 45.9988 144.5 45.8988C144.3 45.6988 143.9 45.4988 143.7 45.2988C143.5 45.1988 143.5 45.0988 143.6 44.8988C143.8 44.5988 144.1 44.1988 144.3 43.8988C144.4 43.7988 144.4 43.7988 144.5 43.7988C145.4 44.3988 146.2 44.7988 147.1 45.1988C147.8 45.3988 148.5 45.5988 149.3 45.6988C149.7 45.7988 150 45.7988 150.3 45.7988C151.2 45.7988 152.1 45.6988 153 45.3988C153.9 45.0988 154.8 44.6988 155.6 44.1988C155.8 44.0988 155.9 43.9988 156.1 43.8988C156.2 43.7988 156.2 43.7988 156.3 43.8988C156.6 44.2988 156.9 44.6988 157.2 45.0988C157.3 45.1988 157.3 45.2988 157.1 45.2988C156.9 45.3988 156.8 45.4988 156.7 45.5988C156.6 45.6988 156.6 45.6988 156.6 45.7988C157 46.3988 157.3 46.9988 157.6 47.5988C157.8 47.9988 158 48.3988 158.3 48.7988C158.4 48.8988 158.4 48.8988 158.2 48.9988C157.7 49.2988 157.2 49.4988 156.7 49.7988C156.6 49.8988 156.5 49.8988 156.4 49.6988C156.1 48.9988 155.7 48.2988 155.4 47.5988C155.3 47.3988 155.2 46.9988 155 46.7988C154.8 46.9988 154.8 46.9988 154.8 46.9988Z" fill="#A3A3A3"/>
<path d="M146 34.8999C146.1 34.5999 146.1 34.2999 146.2 33.9999C146.3 33.7999 146.6 33.7999 146.8 33.5999C147.5 33.1999 148.2 32.7999 148.9 32.3999C149.3 32.1999 149.7 31.8999 150.1 31.6999C150.3 31.5999 150.5 31.7999 150.7 31.7999C151.1 31.7999 151.3 32.0999 151.6 32.3999C152 32.8999 152.3 33.3999 152.6 33.8999C152.7 33.9999 152.7 34.0999 152.7 34.2999C152.7 34.3999 152.6 34.3999 152.7 34.4999C152.8 34.7999 152.6 34.8999 152.3 35.0999C151.9 35.2999 151.5 35.4999 151.1 35.7999C151 35.8999 151 35.8999 151 35.9999C151.1 36.2999 151.3 36.5999 151.4 36.7999C151.8 37.3999 152.1 38.0999 152.4 38.6999C152.9 39.5999 153.4 40.4999 153.9 41.3999C154 41.4999 154 41.5999 153.8 41.5999C153.2 41.7999 152.8 42.1999 152.3 42.3999C152.2 42.4999 152.2 42.4999 152.1 42.2999C151.7 41.6999 151.4 41.0999 151.1 40.4999C150.4 39.2999 149.7 37.9999 149.1 36.7999C149 36.5999 148.9 36.6999 148.8 36.6999C148.4 36.8999 147.9 37.0999 147.6 37.3999C147.4 37.4999 147.2 37.4999 147.1 37.3999C146.7 37.2999 146.7 36.8999 146.5 36.5999C146.3 36.0999 146.1 35.5999 145.9 35.0999C146 35.0999 145.9 34.9999 146 34.8999Z" fill="#A3A3A3"/>
<path d="M160.2 38.3988C161.1 38.4988 161.9 38.4988 162.8 38.4988C163.4 38.5988 163.8 38.5988 164.4 38.5988C165.3 38.6988 166.1 38.6988 166.9 38.6988C167.5 38.6988 167.9 38.7988 168.5 38.7988C169.4 38.8988 170.2 38.8988 171 38.8988C171.6 38.9988 172 38.9988 172.6 38.9988C173.5 39.0988 174.3 39.0988 175.2 39.0988C175.7 39.0988 176.2 39.1988 176.7 39.1988C177.6 39.2988 178.4 39.2988 179.2 39.2988C179.4 39.2988 179.7 39.2988 179.9 39.3988C180 39.3988 180.1 39.3988 180.1 39.4988C180.1 39.5988 180 39.5988 180 39.5988C179.4 39.8988 178.9 40.1988 178.3 40.4988C177.9 40.6988 177.4 40.9988 177 41.1988C176.7 41.3988 176.4 41.3988 176 41.2988C175.1 41.1988 174.2 41.0988 173.3 40.8988C172.4 40.7988 171.6 40.6988 170.8 40.5988C169.9 40.4988 169.1 40.3988 168.3 40.2988C167.6 40.1988 166.8 40.0988 166.1 39.9988C165.2 39.8988 164.4 39.7988 163.5 39.5988C162.9 39.4988 162.4 39.4988 161.8 39.3988C161.2 39.2988 160.6 39.1988 160 39.0988C159.9 39.0988 159.7 39.1988 159.6 38.9988C159.5 38.8988 159.7 38.7988 159.7 38.5988C159.7 38.4988 159.8 38.3988 159.8 38.2988C159.9 38.3988 160 38.3988 160.2 38.3988Z" fill="#A3A3A3"/>
<path d="M120 39.6C120.3 39.5 120.6 39.5 120.8 39.5C121.2 39.5 121.6 39.4 122 39.4C122.9 39.3 123.7 39.3 124.5 39.3C125 39.3 125.5 39.2 125.9 39.2C126.8 39.1 127.6 39.1 128.4 39.1C128.9 39.1 129.4 39 129.8 39C130.7 38.9 131.5 38.9 132.3 38.9C132.8 38.9 133.2 38.8 133.7 38.8C134.5 38.7 135.3 38.7 136.1 38.7C136.7 38.6 137.2 38.6 137.7 38.6C138.4 38.5 139.1 38.5 139.9 38.5C140.1 38.5 140.3 38.5 140.3 38.8C140.3 39 140.4 39.2 140.5 39.3C140.6 39.4 140.5 39.4 140.4 39.4C140.1 39.5 139.7 39.5 139.4 39.5C138.8 39.6 138.3 39.6 137.7 39.7C137.3 39.8 136.8 39.8 136.4 39.9C135.8 40 135.2 40 134.7 40.1C134.4 40.2 134 40.2 133.7 40.2C133.3 40.3 132.8 40.3 132.4 40.4C132 40.5 131.5 40.5 131.1 40.6C130.5 40.7 129.9 40.7 129.4 40.8C129 40.9 128.5 40.9 128.1 41C127.5 41.1 127 41.1 126.4 41.2C126 41.3 125.5 41.3 125 41.4C124.6 41.5 124.1 41.5 123.7 41.6C123.5 41.6 123.3 41.7 123.1 41.5C122.5 41.1 121.9 40.8 121.3 40.5C121 40.1 120.5 39.8 120 39.6Z" fill="#A3A3A3"/>
<path d="M126.2 41.799C126.7 41.699 127.2 41.699 127.7 41.599C128.3 41.499 128.8 41.399 129.4 41.399C129.9 41.299 130.4 41.299 130.9 41.199C131.4 41.099 131.9 41.099 132.4 40.999C132.8 40.899 133.2 40.899 133.6 40.799C134 40.699 134.4 40.699 134.8 40.599C135.2 40.499 135.6 40.499 136 40.399C136.6 40.299 137 40.199 137.6 40.199C138.2 40.199 138.6 40.099 139.2 39.999C139.6 39.899 140 39.899 140.4 39.799C140.7 39.699 140.8 39.799 141 39.999C141.1 40.299 141.3 40.599 141.4 40.899C141.5 40.999 141.5 41.099 141.3 41.099C140.9 41.199 140.5 41.299 140.1 41.399C139 41.599 137.8 41.899 136.7 42.099C135.6 42.299 134.4 42.599 133.3 42.799C132.2 42.999 131.1 43.299 130 43.499C129.8 43.599 129.7 43.499 129.6 43.399C128.8 42.999 128 42.499 127.2 42.099C126.8 42.199 126.5 41.999 126.2 41.799Z" fill="#A3A3A3"/>
<path d="M173.9 41.9988C173.5 42.1988 173.1 42.3988 172.7 42.6988C172.1 42.9988 171.5 43.2988 171 43.5988C170.9 43.6988 170.7 43.7988 170.5 43.7988C170.4 43.8988 170.3 43.7988 170.2 43.6988C169.5 43.4988 168.7 43.2988 167.9 43.1988C166.9 42.9988 165.8 42.6988 164.8 42.4988C164.1 42.2988 163.3 42.0988 162.5 41.9988C161.5 41.7988 160.5 41.5988 159.4 41.2988C159.2 41.1988 159 41.1988 158.8 41.1988C158.7 41.1988 158.7 41.0988 158.7 40.9988C158.9 40.6988 159.1 40.2988 159.3 39.9988C159.4 39.7988 159.5 39.7988 159.7 39.7988C160.1 39.8988 160.5 39.8988 160.9 39.9988C161.6 40.0988 162.3 40.1988 163.1 40.2988C163.7 40.3988 164.3 40.4988 164.9 40.4988C165.6 40.5988 166.3 40.6988 167 40.7988C167.5 40.8988 168 40.8988 168.5 40.9988C169.1 41.0988 169.7 41.1988 170.3 41.1988C170.8 41.2988 171.3 41.2988 171.8 41.3988C172.4 41.4988 173 41.5988 173.6 41.5988C173.6 41.9988 173.7 41.8988 173.9 41.9988Z" fill="#A3A3A3"/>
<path d="M167.9 43.8984C167 44.2984 166.1 44.5984 165.1 44.9984C164.7 45.1984 164.2 45.3984 163.9 45.4984C163.8 45.5984 163.7 45.5984 163.5 45.4984C162.6 45.1984 161.7 44.7984 160.7 44.4984C159.8 44.0984 158.8 43.7984 157.9 43.4984C157.6 43.3984 157.3 43.2984 157 43.1984C157.5 42.6984 158 42.1984 158.4 41.7984C158.5 41.6984 158.7 41.7984 158.9 41.7984C159.8 41.9984 160.7 42.1984 161.5 42.3984C162.6 42.5984 163.7 42.9984 164.9 43.1984C165.8 43.3984 166.8 43.5984 167.7 43.7984C167.8 43.7984 167.9 43.7984 167.9 43.8984Z" fill="#A3A3A3"/>
<path d="M143.1 43.0992C142.5 43.2992 142.1 43.4992 141.5 43.6992C140.3 44.0992 139.2 44.5992 138.1 44.8992C137.7 44.9992 137.2 45.1992 136.9 45.3992C136.6 45.4992 136.3 45.4992 136.1 45.2992C135.3 44.8992 134.4 44.5992 133.6 44.2992C133.2 44.0992 132.7 43.8992 132.2 43.6992C132.6 43.5992 132.9 43.4992 133.2 43.4992C134.1 43.2992 134.9 43.0992 135.7 42.8992C136.8 42.6992 137.9 42.3992 139 42.1992C139.8 41.9992 140.7 41.7992 141.5 41.5992C141.6 41.5992 141.7 41.4992 141.7 41.6992C142.2 42.1992 142.7 42.5992 143.1 43.0992Z" fill="#A3A3A3"/>
<path d="M150.3 25.6992C151.2 25.9992 152.1 26.2992 152.9 26.6992C153.8 27.0992 154.6 27.5992 155.3 28.0992C155.7 28.3992 156.2 28.6992 156.5 29.0992C157.5 30.0992 158.4 31.0992 159 32.3992C159.3 33.0992 159.6 33.7992 159.6 34.5992C159.6 34.9992 159.7 34.9992 159.2 34.9992C158.8 34.9992 158.3 34.9992 157.8 34.9992C157.7 34.9992 157.6 34.9992 157.6 34.7992C157.5 34.2992 157.4 33.7992 157.2 33.2992C156.9 32.3992 156.5 31.5992 156 30.7992C155.5 30.0992 155 29.3992 154.3 28.7992C153.4 27.7992 152.3 26.8992 151.2 26.1992C151 26.0992 150.6 25.8992 150.3 25.6992Z" fill="#A3A3A3"/>
<path d="M164.1 76.8C163.3 76.8 162.5 76.8 161.7 76.8C161.4 76.8 161.3 76.7 161.3 76.4C161.3 76 161.3 75.5 161.3 75.2C161.3 74.9 161.2 74.8 160.9 74.7C159.3 74.7 157.7 74.6 156.2 74.2C154.9 73.9 153.7 73.4 152.8 72.5C150.6 70.5 150.9 67.2 153.2 65.3C154.4 64.3 155.9 63.9 157.4 63.7C158.6 63.5 159.7 63.5 160.9 63.5C161.3 63.5 161.3 63.4 161.3 63.1C161.3 62.7 161.3 62.3 161.3 61.9C161.3 61.7 161.4 61.5 161.6 61.5C163.3 61.5 164.9 61.5 166.5 61.5C166.7 61.5 166.8 61.6 166.8 61.8C166.8 62.2 166.8 62.7 166.8 63.1C166.8 63.4 166.9 63.5 167.2 63.5C168.7 63.5 170.2 63.6 171.7 63.9C173.1 64.2 174.3 64.7 175.3 65.6C177.6 67.7 177.4 71 174.9 72.9C173.6 73.9 172.1 74.3 170.6 74.5C169.4 74.7 168.3 74.7 167.1 74.7C166.8 74.7 166.7 74.8 166.7 75.1C166.7 75.5 166.7 76 166.7 76.5C166.7 76.7 166.6 76.9 166.3 76.9C165.7 76.7 164.9 76.8 164.1 76.8ZM166.7 69C166.7 70.1 166.7 71.3 166.7 72.4C166.7 72.6 166.6 72.8 166.9 72.8C168 72.8 169.1 72.7 170.1 72C171.1 71.4 171.5 70.4 171.5 69.3C171.6 67.6 170.9 66.1 169 65.5C168.3 65.3 167.7 65.3 167 65.2C166.7 65.2 166.6 65.3 166.6 65.6C166.7 66.7 166.7 67.9 166.7 69ZM161.5 69C161.5 68 161.5 67 161.5 66.1C161.5 65.2 161.7 65.2 160.6 65.3C158.3 65.4 156.9 66.5 156.7 68.7C156.5 70.4 157.3 72.1 159.3 72.6C159.9 72.7 160.5 72.8 161.1 72.8C161.4 72.8 161.5 72.7 161.5 72.4C161.5 71.3 161.5 70.1 161.5 69Z" fill="#A3A3A3"/>
<path d="M205.4 76.7984C202.6 76.6984 199.9 76.2984 197.5 74.7984C195.8 73.7984 194.6 72.3984 194.2 70.4984C193.6 67.6984 194.7 65.5984 196.8 63.8984C198.4 62.6984 200.2 62.0984 202.2 61.6984C205.5 61.0984 208.6 61.3984 211.7 62.5984C213.2 63.1984 214.5 64.0984 215.5 65.3984C217.4 67.9984 217.2 71.0984 214.9 73.3984C213.4 74.8984 211.5 75.6984 209.4 76.1984C208.1 76.5984 206.7 76.7984 205.4 76.7984ZM205.4 63.1984C202.8 63.1984 200.9 64.5984 200.3 66.9984C200 67.9984 200 69.1984 200.1 70.1984C200.3 72.4984 201.9 74.7984 204.8 74.9984C207.6 75.1984 209.7 73.8984 210.4 71.3984C210.7 70.3984 210.7 69.2984 210.6 68.1984C210.5 65.6984 208.7 63.0984 205.4 63.1984Z" fill="#A3A3A3"/>
<path d="M138.6 76.799C135.9 76.699 133.3 76.2989 130.9 74.8989C129.5 74.0989 128.5 73.0989 127.9 71.6989C126.8 69.3989 127.2 67.1989 128.8 65.1989C130.2 63.4989 131.9 62.6989 134 62.1989C137.7 61.1989 141.4 61.2989 144.9 62.7989C146.4 63.3989 147.6 64.1989 148.6 65.3989C150.7 68.0989 150.3 71.5989 147.8 73.8989C146.2 75.2989 144.3 76.0989 142.3 76.4989C141 76.5989 139.9 76.799 138.6 76.799ZM138.6 63.1989C135.8 63.1989 134 64.599 133.4 67.299C133.2 68.199 133.2 69.0989 133.3 70.0989C133.4 72.6989 135.1 74.8989 138 75.0989C140.8 75.2989 142.9 73.9989 143.7 71.3989C144 70.3989 144 69.299 143.9 68.299C143.8 65.599 142 63.0989 138.6 63.1989Z" fill="#A3A3A3"/>
<path d="M97.4 67.8991C98.7 67.8991 100 67.8991 101.3 67.8991C101.7 67.8991 101.7 67.7991 101.6 67.4991C101.2 65.2991 99.8 64.0991 97.7 63.5991C95.2 62.9991 92.8 63.2991 90.6 64.7991C90.1 65.1991 89.7 65.5991 89.3 65.9991C89.1 66.1991 89 66.1991 88.8 66.0991C88.1 65.6991 87.4 65.2991 86.8 64.8991C86.4 64.6991 86.5 64.5991 86.7 64.2991C88.5 62.7991 90.5 61.8991 92.7 61.5991C96 60.9991 99.2 61.1991 102.4 62.3991C103.9 62.9991 105.3 63.7991 106.3 65.1991C108.5 67.9991 108 71.6991 105.2 73.9991C103.6 75.2991 101.8 75.9991 99.8 76.2991C97.3 76.6991 94.8 76.8991 92.3 76.1991C90.1 75.6991 88.2 74.5991 86.6 72.9991C86.4 72.7991 86.4 72.5991 86.7 72.3991C87.4 71.9991 88.1 71.5991 88.8 71.1991C89 71.0991 89.1 71.0991 89.2 71.2991C90.9 73.8991 93.4 74.7991 96.5 74.4991C97.3 74.3991 98 74.2991 98.8 73.8991C100.5 73.1991 101.4 71.6991 101.6 69.9991C101.7 69.6991 101.5 69.5991 101.2 69.5991C98.9 69.6991 96.5 69.6991 94.2 69.6991C93.2 69.6991 93.2 69.7991 93.2 68.6991C93.2 68.2991 93 67.7991 93.3 67.5991C93.5 67.3991 94 67.4991 94.4 67.4991C95.4 67.4991 96.4 67.4991 97.5 67.4991C97.4 67.7991 97.4 67.8991 97.4 67.8991Z" fill="#A3A3A3"/>
<path d="M109.3 68.9988C109.3 66.6988 109.3 64.4988 109.3 62.1988C109.3 61.8988 109.4 61.7988 109.7 61.7988C113.1 61.7988 116.6 61.7988 120 61.8988C121.2 61.8988 122.4 61.9988 123.5 62.3988C124.9 62.8988 126.1 63.7988 126.5 65.1988C127.1 67.3988 126.1 69.3988 123.9 70.1988C122.5 70.7988 121.1 70.8988 119.6 70.8988C118.1 70.8988 116.6 70.9988 115.1 70.8988C114.8 70.8988 114.7 70.9988 114.7 71.2988C114.7 72.7988 114.7 74.1988 114.7 75.6988C114.7 76.0988 114.6 76.1988 114.3 76.0988C112.8 76.0988 111.3 76.0988 109.8 76.0988C109.4 76.0988 109.3 75.9988 109.3 75.6988C109.3 73.5988 109.3 71.2988 109.3 68.9988ZM114.7 66.3988C114.7 67.0988 114.7 67.6988 114.7 68.3988C114.7 68.6988 114.8 68.7988 115.1 68.7988C116 68.7988 117 68.7988 117.9 68.7988C118.7 68.7988 119.4 68.5988 120.1 68.0988C121.4 67.0988 121.2 65.1988 119.7 64.4988C119.4 64.2988 119.1 64.2988 118.7 64.1988C117.4 63.9988 116.1 64.0988 114.9 64.0988C114.7 64.0988 114.7 64.1988 114.7 64.3988C114.7 65.0988 114.7 65.7988 114.7 66.3988Z" fill="#A3A3A3"/>
<path d="M87.6 76.3C87.4 76.4 87.3 76.4 87.2 76.4C85.5 76.4 83.8 76.4 82 76.4C81.7 76.4 81.5 76.3 81.3 76C80.7 74.8 80 73.7 79.3 72.6C79.2 72.4 79.1 72.3 78.8 72.3C76.5 72.3 74.2 72.3 71.9 72.3C71.7 72.3 71.5 72.4 71.3 72.6C70.7 73.8 70.1 74.9 69.5 76.1C69.4 76.3 69.3 76.5 68.9 76.5C68.2 76.5 67.4 76.5 66.6 76.5C66.9 75.9 67.2 75.4 67.4 74.9C69.6 70.7 71.8 66.5 73.9 62.4C74 62.2 74.1 62 74.5 62C76 62 77.4 62 78.9 62C79.1 62 79.3 62.1 79.4 62.2C82 66.9 84.7 71.5 87.4 76.1C87.6 76.1 87.6 76.2 87.6 76.3ZM75.3 70.2C76.1 70.2 76.9 70.2 77.7 70.2C78 70.2 78.1 70.1 77.9 69.8C77.1 68.3 76.2 66.9 75.4 65.4C75.2 65.1 75.2 65.1 75 65.4C74.3 66.9 73.5 68.3 72.7 69.8C72.5 70.1 72.6 70.2 72.9 70.2C73.8 70.2 74.6 70.2 75.3 70.2Z" fill="#A3A3A3"/>
<path d="M175.4 76.2984C175.8 75.5984 176.1 74.8984 176.4 74.1984C178.4 70.1984 180.3 66.2984 182.3 62.2984C182.4 61.9984 182.6 61.8984 183 61.8984C184.4 61.8984 185.8 61.8984 187.3 61.8984C187.6 61.8984 187.8 61.9984 187.9 62.2984C190.4 66.7984 192.9 71.3984 195.4 75.8984C195.6 76.2984 195.6 76.2984 195.1 76.2984C193.4 76.2984 191.7 76.2984 190 76.2984C189.6 76.2984 189.4 76.1984 189.3 75.8984C187.5 72.4984 185.6 68.9984 183.8 65.5984C183.7 65.4984 183.7 65.1984 183.6 65.1984C183.4 65.1984 183.4 65.3984 183.4 65.5984C181.7 68.9984 180.1 72.3984 178.5 75.7984C178.3 76.1984 178.1 76.3984 177.6 76.3984C176.7 76.2984 176.1 76.2984 175.4 76.2984Z" fill="#A3A3A3"/>
<path d="M224.5 61.8984C227.2 61.8984 230 61.8984 232.7 61.8984C233.1 61.8984 233.2 61.9984 233.2 62.3984C233.2 62.7984 233.2 63.2984 233.2 63.6984C233.2 63.9984 233.1 64.0984 232.8 64.0984C231.1 64.0984 229.4 64.0984 227.8 64.0984C227.4 64.0984 227.3 64.1984 227.3 64.5984C227.3 68.2984 227.3 72.0984 227.3 75.8984C227.3 76.2984 227.2 76.3984 226.8 76.3984C225.3 76.3984 223.8 76.3984 222.3 76.3984C221.9 76.3984 221.9 76.2984 221.9 75.9984C221.9 72.2984 221.9 68.4984 221.9 64.6984C221.9 64.2984 221.8 64.0984 221.3 64.0984C219.6 64.0984 218 64.0984 216.4 64.0984C216 64.0984 215.9 63.9984 215.9 63.6984C216 63.2984 215.9 62.7984 215.9 62.2984C215.9 61.9984 216 61.8984 216.3 61.8984C218.1 61.8984 220 61.8984 221.9 61.8984C222.8 61.8984 223.7 61.8984 224.5 61.8984Z" fill="#A3A3A3"/>
</svg>
