<svg width="300" height="103" viewBox="0 0 300 103" fill="none" xmlns="http://www.w3.org/2000/svg">
<path d="M58.3 40.4008C58.9 39.1008 59.7001 38.5008 60.7001 38.3008C61.8001 38.0008 62.8 37.8008 64 37.8008C67.1 37.7008 70.2001 37.8008 73.3001 37.7008C74.0001 37.7008 74.6 37.6008 75.2 37.4008C76.5 36.9008 77.9 36.4008 79.2 35.8008C80.8 35.1008 82.4 35.4008 84 35.3008C84.1 35.4008 84.1 35.4008 84.1 35.6008C83.5 36.3008 82.8 36.9008 82 37.7008C82.7001 37.7008 83.1 37.7008 83.5 37.7008C86.2001 37.8008 89 38.1008 91.5 39.2008C92.8 39.7008 94 40.5008 95 41.6008C97 43.8008 97 46.6008 94.9001 48.8008C93.2001 50.7008 91 51.5008 88.6 52.1008C87.3 52.4008 86 52.5008 84.6 52.8008C85.5 53.9008 86.4001 54.7008 87.3001 55.7008C88.2001 56.6008 89.1 57.6008 90 58.5008C90.9001 59.5008 91.9001 60.4008 92.8001 61.4008C93.7001 62.3008 94.6 63.3008 95.5 64.2008C96.4001 65.1008 97.4001 66.1008 98.4001 67.3008C97.9001 67.4008 97.6001 67.4008 97.3001 67.4008C92.8001 67.4008 88.5 66.7008 84.5 64.7008C81.8 63.3008 79.5001 61.4008 77.4001 59.2008C74.8001 56.4008 72.3 53.6008 69.7 50.8008C69.6 50.7008 69.4 50.5008 69.2 50.2008C69.7 50.1008 70.0001 50.1008 70.3001 50.1008C72.8001 50.1008 75.4001 50.2008 77.9001 50.1008C79.6001 50.0008 81.2001 49.9008 82.9001 49.6008C83.8001 49.5008 84.7001 49.1008 85.5 48.6008C86.6 48.0008 87.2 47.1008 87.2 45.8008C87.5 43.5008 86.5001 42.0008 84.3001 41.3008C83.0001 40.9008 81.8001 40.6008 80.4001 40.6008C73.5001 40.6008 66.5 40.6008 59.5 40.6008C59.4 40.5008 58.9 40.5008 58.3 40.4008Z" fill="#A3A3A3"/>
<path d="M237.9 57.1008C237.9 55.6008 237.9 54.1008 237.9 52.6008C236.6 52.5008 235.4 52.5008 234.2 52.6008C234 52.6008 233.7 52.9008 233.6 53.1008C232.9 53.9008 232.2 54.8008 231.4 55.5008C229.7 57.1008 227.2 57.8008 225 57.2008C226.6 55.5008 228.1 53.7008 229.7 52.0008C229.3 51.8008 229 51.7008 228.8 51.5008C227.1 50.7008 226.3 49.4008 226.4 47.6008C226.5 45.8008 227.3 44.6008 229 44.0008C230.1 43.6008 231.2 43.3008 232.3 43.3008C235.3 43.3008 238.3 43.4008 241.3 43.6008C241.4 43.6008 241.5 43.7008 241.6 43.7008C241.9 44.5008 241.9 56.1008 241.6 57.2008C240.4 57.1008 239.2 57.1008 237.9 57.1008ZM237.9 44.9008C236.8 44.8008 235.7 44.7008 234.6 44.7008C234 44.7008 233.3 44.8008 232.7 44.9008C231.7 45.2008 231 45.8008 230.7 46.8008C230.2 48.6008 231.3 50.2008 233.1 50.6008C233.4 50.7008 233.7 50.7008 234 50.7008C235.3 50.8008 236.5 50.8008 237.8 50.7008C237.9 48.9008 237.9 47.0008 237.9 44.9008Z" fill="#A3A3A3"/>
<path d="M220.6 43.5002C220.6 48.1002 220.6 52.5002 220.6 57.1002C219.4 57.1002 218.1 57.1002 216.8 57.1002C216.8 55.4002 216.8 53.8002 216.8 52.1002C216.8 50.4002 216.8 48.8002 216.6 47.0002C216.4 47.3002 216.1 47.5002 215.9 47.7002C213.7 50.6002 211.5 53.4002 209.3 56.2002C208.8 56.9002 208.3 57.1002 207.6 57.0002C206.7 56.9002 205.9 57.0002 205 57.0002C204.7 56.2002 204.7 44.8002 204.9 43.4002C206.1 43.4002 207.3 43.4002 208.6 43.4002C208.6 45.1002 208.6 46.7002 208.6 48.4002C208.6 50.1002 208.6 51.7002 208.6 53.4002C208.7 53.4002 208.7 53.5002 208.8 53.5002C209.1 53.2002 209.3 52.9002 209.5 52.6002C211.7 49.8002 213.9 47.0002 216 44.1002C216.5 43.5002 216.9 43.2002 217.7 43.3002C218.7 43.6002 219.6 43.5002 220.6 43.5002Z" fill="#A3A3A3"/>
<path d="M153.3 57.6004C151.3 57.5003 149.4 57.2004 147.5 56.2004C143 53.7004 142.8 47.2004 147.4 44.6004C149.3 43.5004 151.5 43.1004 153.7 43.2004C155.4 43.3004 157.1 43.5004 158.6 44.3004C161.1 45.6004 162.5 47.6004 162.5 50.5004C162.4 53.3004 161 55.2004 158.5 56.4004C156.9 57.2004 155.1 57.5003 153.3 57.6004ZM148.4 50.4004C148.4 51.3004 148.5 52.4004 149.1 53.3004C150 55.0004 151.5 55.8004 153.4 55.8004C155.3 55.8004 156.8 54.9004 157.6 53.2004C158.5 51.2004 158.5 49.2004 157.5 47.3004C156.7 45.6004 155.3 44.8004 153.5 44.8004C151.6 44.7004 150.1 45.5004 149.2 47.1004C148.6 48.1004 148.3 49.2004 148.4 50.4004Z" fill="#A3A3A3"/>
<path d="M129 53.4008C129 54.7008 129 55.9008 129 57.1008C127.7 57.1008 126.5 57.1008 125.3 57.1008C125.1 56.3008 125 45.3008 125.2 43.7008C125.5 43.6008 125.7 43.6008 125.9 43.6008C128.4 43.5008 131 43.3008 133.6 43.3008C135 43.3008 136.4 43.6008 137.7 44.1008C139.4 44.8008 140.4 46.1008 140.5 48.0008C140.6 50.0008 139.8 51.5008 137.9 52.4008C136.5 53.1008 135 53.3008 133.4 53.4008C132.1 53.4008 130.6 53.4008 129 53.4008ZM129.1 51.6008C130.3 51.7008 131.4 51.8008 132.4 51.7008C133.1 51.6008 133.9 51.4008 134.5 51.1008C135.8 50.5008 136.3 49.1008 136.2 47.8008C136.1 46.4008 135.3 45.4008 133.9 45.0008C132.3 44.5008 130.7 44.6008 129 44.9008C129.1 47.2008 129.1 49.3008 129.1 51.6008Z" fill="#A3A3A3"/>
<path d="M181.6 54.4006C181.6 54.9006 181.7 55.5006 181.5 56.1006C181.4 56.4006 181.1 56.6006 180.8 56.8006C178.9 57.5006 176.8 57.7006 174.7 57.6006C173.2 57.5006 171.8 57.2006 170.6 56.6006C165.7 54.3006 165.7 48.9006 168.2 46.1006C169.3 44.8006 170.7 44.0006 172.4 43.6006C175.3 42.9006 178.2 43.1006 181.1 44.0006C181.2 44.1006 181.4 44.1006 181.6 44.3006C181.3 45.0006 181.1 45.6006 180.9 46.3006C180.6 46.1006 180.3 46.0006 180 45.8006C178.8 45.1006 177.5 44.8006 176.2 44.8006C173.3 44.8006 171.3 46.6006 171 49.5006C170.9 50.4006 171 51.2006 171.2 52.1006C171.6 54.1006 173.1 55.4006 175.1 55.6006C177.2 55.9006 179.2 55.6006 181 54.5006C181.1 54.4006 181.3 54.4006 181.4 54.3006C181.4 54.3006 181.5 54.3006 181.6 54.4006Z" fill="#A3A3A3"/>
<path d="M199.1 46.1008C197.8 45.6008 196.7 45.2008 195.6 44.9008C194.6 44.6008 193.6 44.8008 192.6 45.0008C190.5 45.6008 189.3 47.5008 189.2 49.9008C189.2 50.6008 189.3 51.4008 189.5 52.2008C190 54.1008 191.4 55.3008 193.3 55.6008C195.4 55.9008 197.4 55.6008 199.2 54.5008C199.3 54.4008 199.5 54.4008 199.8 54.2008C199.8 54.9008 199.9 55.5008 199.8 56.1008C199.8 56.6008 199.3 56.7008 199 56.8008C197 57.5008 195 57.7008 192.9 57.5008C191.4 57.4008 189.9 57.1008 188.6 56.4008C186.3 55.2008 184.9 53.3008 184.9 50.7008C184.8 48.0008 186.1 46.0008 188.4 44.6008C190.1 43.6008 191.9 43.3008 193.7 43.3008C195.5 43.3008 197.2 43.4008 199 44.0008C199.3 44.1008 199.5 44.2008 199.9 44.3008C199.5 44.9008 199.3 45.6008 199.1 46.1008Z" fill="#A3A3A3"/>
</svg>
