<svg width="300" height="103" viewBox="0 0 300 103" fill="none" xmlns="http://www.w3.org/2000/svg">
<path d="M95.3 25.4004C109.6 25.4004 121.1 37.0004 121.1 51.2004C121.1 65.5004 109.4 77.2004 95 77.0004C81 77.0004 69.4 65.5004 69.4 51.2004C69.4 36.9004 81 25.4004 95.3 25.4004ZM93.2 37.7004C91.2 37.8004 89.1 37.8004 87.1 38.1004C84.9 38.4004 83 39.3004 81.4 40.9004C78.9 43.5004 78.5 48.1004 81.4 51.0004C82.3 51.8004 83.2 52.5004 84.2 53.2004C85.6 54.1004 87.1 55.0004 88.4 56.1004C90.1 57.6004 89.6 59.7004 88 60.7004C87 61.4004 85.9 61.6004 84.7 61.7004C82.6 61.8004 80.4 61.7004 78.4 61.1004C78.1 61.0004 78 61.1004 77.8 61.4004C77.4 62.5004 77 63.6004 76.6 64.8004C76.5 65.2004 76.5 65.3004 76.9 65.4004C80 66.1004 83.2 66.4004 86.3 65.9004C89.1 65.4004 91.6 64.2004 93.3 61.8004C95.2 59.2004 95.6 55.2004 92.6 52.3004C91.6 51.4004 90.5 50.6004 89.4 49.9004C88.1 49.1004 86.8 48.3004 85.7 47.3004C84.4 46.1004 84.6 43.9004 86.2 43.0004C87 42.6004 87.8 42.4004 88.6 42.3004C90.6 42.2004 92.7 42.2004 94.7 42.2004C95 42.2004 95.1 42.1004 95.3 41.8004C95.8 40.5004 96.3 39.3004 96.8 38.1004C97 37.7004 96.8 37.7004 96.5 37.7004C95.4 37.8004 94.3 37.7004 93.2 37.7004ZM99 60.2004C100.6 60.2004 102.2 60.2004 103.7 60.2004C104.1 60.2004 104.2 60.1004 104.4 59.8004C107.2 52.8004 110 45.8004 112.8 38.8004C113.1 38.0004 112.9 37.8004 112.1 37.8004C108.1 37.8004 104.1 37.8004 100.1 37.8004C99.8 37.8004 99.7 37.9004 99.6 38.2004C99.1 39.4004 98.6 40.7004 98.1 41.9004C97.9 42.3004 98 42.4004 98.4 42.4004C100.8 42.4004 103.2 42.4004 105.7 42.4004C105.8 42.4004 106 42.3004 106.2 42.5004C103.8 48.2004 101.4 54.2004 99 60.2004Z" fill="#A3A3A3"/>
<path d="M126.7 60.2012C127.1 59.1012 127.5 58.1012 128 57.1012C130.5 50.8012 133.1 44.5012 135.6 38.2012C135.8 37.8012 135.9 37.7012 136.4 37.7012C137.7 37.7012 139.1 37.7012 140.4 37.7012C140.8 37.7012 140.9 37.8012 141.1 38.2012C143.9 45.4012 146.8 52.6012 149.6 59.7012C149.8 60.1012 149.7 60.2012 149.3 60.2012C147.9 60.2012 146.5 60.2012 145.1 60.2012C144.7 60.2012 144.6 60.1012 144.5 59.7012C144.1 58.4012 143.6 57.2012 143.1 55.9012C143 55.6012 142.9 55.5012 142.5 55.5012C139.7 55.5012 136.9 55.5012 134 55.5012C133.6 55.5012 133.5 55.6012 133.4 55.9012C132.9 57.2012 132.5 58.4012 132 59.7012C131.9 59.9012 131.9 60.1012 131.7 60.1012C130.1 60.2012 128.4 60.2012 126.7 60.2012ZM138.2 42.4012C138.1 42.5012 138.1 42.5012 138.1 42.5012C137 45.5012 136 48.5012 134.9 51.5012C134.8 51.8012 135 51.8012 135.2 51.8012C137.2 51.8012 139.2 51.8012 141.1 51.8012C141.4 51.8012 141.5 51.8012 141.4 51.4012C140.4 48.5012 139.3 45.4012 138.2 42.4012Z" fill="#A3A3A3"/>
<path d="M209.2 53.3006C207.4 53.3006 205.5 53.3006 203.7 53.3006C203.5 53.3006 203.2 53.2006 203.3 53.6006C203.6 55.2006 204.4 56.7006 206.1 57.2006C206.9 57.4006 207.7 57.5006 208.5 57.3006C209.4 57.1006 210 56.6006 210.4 55.8006C210.6 55.5006 210.8 55.4006 211.1 55.4006C212.2 55.4006 213.2 55.4006 214.3 55.4006C214.9 55.4006 214.9 55.4006 214.7 55.9006C214 58.0006 212.6 59.5006 210.5 60.2006C207.4 61.2006 204.5 60.9006 201.9 58.9006C200.3 57.6006 199.4 55.8006 199.1 53.8006C198.7 51.2006 199.1 48.7006 200.8 46.6006C202.6 44.2006 205.1 43.3006 208 43.6006C211.8 44.0006 214 46.5006 214.8 50.1006C215 51.0006 215.1 51.9006 215.1 52.9006C215.1 53.3006 215 53.4006 214.6 53.4006C212.8 53.3006 211 53.3006 209.2 53.3006ZM207 50.3006C208.1 50.3006 209.1 50.3006 210.2 50.3006C210.5 50.3006 210.6 50.2006 210.5 49.9006C210.4 49.2006 210.2 48.6006 209.7 48.0006C208.8 46.9006 207.3 46.5006 205.8 47.0006C204.3 47.5006 203.7 48.6006 203.4 50.0006C203.3 50.3006 203.5 50.3006 203.7 50.3006C204.8 50.3006 205.9 50.3006 207 50.3006Z" fill="#A3A3A3"/>
<path d="M186.7 46.1001C186.8 46.0001 186.9 45.9001 186.9 45.8001C188.4 43.8001 190.7 43.0001 193.1 43.7001C195.3 44.3001 196.9 46.3001 197 48.7001C197.2 51.1001 197 53.5001 197.1 55.9001C197.1 57.2001 197.1 58.5001 197.1 59.8001C197.1 60.2001 197 60.3001 196.6 60.3001C195.5 60.3001 194.3 60.3001 193.2 60.3001C192.8 60.3001 192.7 60.2001 192.7 59.8001C192.7 56.8001 192.7 53.8001 192.7 50.8001C192.7 50.3001 192.7 49.8001 192.6 49.3001C192.4 48.2001 191.7 47.5001 190.6 47.3001C189.3 47.1001 188.2 47.4001 187.4 48.4001C186.8 49.1001 186.6 49.9001 186.6 50.8001C186.6 53.7001 186.6 56.7001 186.6 59.6001C186.6 60.1001 186.5 60.3001 186 60.2001C184.9 60.2001 183.8 60.2001 182.8 60.2001C182.4 60.2001 182.3 60.1001 182.3 59.7001C182.3 54.5001 182.3 49.4001 182.3 44.2001C182.3 43.8001 182.4 43.7001 182.8 43.7001C183.9 43.7001 185 43.7001 186.1 43.7001C186.5 43.7001 186.6 43.8001 186.6 44.2001C186.6 44.7001 186.6 45.3001 186.6 45.8001C186.7 46.0001 186.7 46.0001 186.7 46.1001Z" fill="#A3A3A3"/>
<path d="M218.1 54.9011C218.7 54.9011 219.2 54.9011 219.8 54.9011C220 54.9011 220.1 54.9011 220.2 55.1011C220.6 57.3011 222.6 57.7011 224.5 57.5011C225 57.4011 225.4 57.3011 225.8 57.1011C226.4 56.8011 226.7 56.3011 226.7 55.6011C226.7 55.0011 226.3 54.6011 225.7 54.3011C224.7 53.8011 223.5 53.7011 222.4 53.5011C221.4 53.3011 220.4 53.1011 219.4 52.7011C217.7 52.0011 216.6 50.9011 216.5 49.0011C216.4 46.9011 217.1 45.2011 219 44.2011C220.6 43.4011 222.3 43.2011 224.1 43.3011C225.5 43.4011 226.7 43.7011 227.9 44.6011C229.2 45.5011 229.8 46.8011 230.1 48.3011C230.1 48.6011 230.1 48.7011 229.7 48.7011C228.6 48.7011 227.6 48.7011 226.5 48.7011C226.2 48.7011 226.1 48.6011 226.1 48.3011C225.9 47.2011 225.2 46.5011 224 46.3011C223.2 46.2011 222.4 46.2011 221.6 46.4011C221.3 46.5011 221.1 46.6011 220.9 46.7011C220.4 47.0011 220.2 47.5011 220.2 48.1011C220.3 48.7011 220.6 48.9011 221.1 49.1011C222.1 49.5011 223.1 49.6011 224.1 49.8011C225.2 50.0011 226.4 50.3011 227.4 50.7011C229.1 51.4011 230.2 52.6011 230.3 54.5011C230.5 56.6011 229.7 58.2011 227.8 59.2011C225.9 60.3011 223.9 60.4011 221.8 60.1011C220.2 59.9011 218.8 59.5011 217.6 58.4011C216.5 57.4011 216 56.2011 215.8 54.8011C215.8 54.5011 215.9 54.5011 216.1 54.5011C217 54.9011 217.6 54.9011 218.1 54.9011Z" fill="#A3A3A3"/>
<path d="M168.9 49.0012C168.9 45.4012 168.9 41.9012 168.9 38.3012C168.9 37.9012 169 37.7012 169.5 37.7012C170.6 37.7012 171.7 37.7012 172.8 37.7012C173.2 37.7012 173.3 37.8012 173.3 38.2012C173.3 45.4012 173.3 52.6012 173.3 59.8012C173.3 60.1012 173.2 60.3012 172.9 60.3012C171.8 60.3012 170.6 60.3012 169.5 60.3012C169.1 60.3012 169 60.2012 169 59.8012C168.9 56.2012 168.9 52.6012 168.9 49.0012Z" fill="#A3A3A3"/>
<path d="M162.1 46.4008C162.3 46.0008 162.6 45.6008 162.8 45.3008C163.8 44.0008 165.2 43.5008 166.8 43.7008C167 43.7008 167.1 43.8008 167.1 44.1008C167.1 45.2008 167.1 46.2008 167.1 47.3008C167.1 47.6008 167 47.6008 166.7 47.6008C165.9 47.5008 165.2 47.6008 164.5 47.9008C162.8 48.6008 162.2 50.0008 162.1 51.7008C162 54.3008 162.1 57.0008 162.1 59.6008C162.1 60.1008 162 60.2008 161.5 60.2008C160.4 60.2008 159.3 60.2008 158.2 60.2008C157.9 60.2008 157.8 60.1008 157.8 59.8008C157.8 54.6008 157.8 49.4008 157.8 44.2008C157.8 43.9008 157.9 43.8008 158.2 43.8008C159.3 43.8008 160.5 43.8008 161.6 43.8008C161.9 43.8008 162 43.9008 162 44.2008C162 44.9008 162 45.6008 162 46.4008C162.1 46.4008 162.1 46.4008 162.1 46.4008Z" fill="#A3A3A3"/>
<path d="M151.1 52.1C151.1 49.6 151.1 47 151.1 44.5C151.1 44.1 151.2 44 151.6 44C152.7 44 153.9 44 155 44C155.3 44 155.4 44.1 155.4 44.4C155.4 49.6 155.4 54.8 155.4 59.9C155.4 60.2 155.3 60.3 155 60.3C153.9 60.3 152.7 60.3 151.6 60.3C151.2 60.3 151 60.2 151 59.8C151.1 57.2 151.1 54.6 151.1 52.1Z" fill="#A3A3A3"/>
<path d="M175.6 52.1C175.6 49.6 175.6 47 175.6 44.5C175.6 44.1 175.7 44 176.1 44C177.2 44 178.4 44 179.5 44C179.8 44 179.9 44.1 179.9 44.4C179.9 49.6 179.9 54.8 179.9 59.9C179.9 60.2 179.8 60.3 179.5 60.3C178.4 60.3 177.2 60.3 176.1 60.3C175.7 60.3 175.5 60.2 175.5 59.8C175.6 57.2 175.6 54.6 175.6 52.1Z" fill="#A3A3A3"/>
<path d="M153.3 41.5996C152.7 41.5996 152.1 41.5996 151.5 41.5996C151.2 41.5996 151.1 41.5996 151.1 41.1996C151.1 40.0996 151.1 39.0996 151.1 37.9996C151.1 37.6996 151.2 37.5996 151.5 37.5996C152.7 37.5996 153.9 37.5996 155.1 37.5996C155.4 37.5996 155.5 37.6996 155.5 37.9996C155.5 38.9996 155.5 39.9996 155.5 41.0996C155.5 41.4996 155.4 41.4996 155 41.4996C154.4 41.5996 153.9 41.5996 153.3 41.5996Z" fill="#A3A3A3"/>
<path d="M177.8 41.5996C177.2 41.5996 176.6 41.5996 176 41.5996C175.7 41.5996 175.6 41.4996 175.6 41.1996C175.6 40.0996 175.6 39.0996 175.6 37.9996C175.6 37.6996 175.7 37.5996 176 37.5996C177.2 37.5996 178.3 37.5996 179.5 37.5996C179.8 37.5996 179.9 37.6996 179.9 37.9996C179.9 38.9996 179.9 40.0996 179.9 41.0996C179.9 41.3996 179.8 41.4996 179.5 41.4996C179 41.5996 178.4 41.5996 177.8 41.5996Z" fill="#A3A3A3"/>
</svg>
