<svg width="300" height="103" viewBox="0 0 300 103" fill="none" xmlns="http://www.w3.org/2000/svg">
<path d="M107.1 56.3992C105.8 56.7992 104.6 57.0992 103.3 57.4992C103.7 58.0992 104.2 58.6992 104.6 59.2992C105.3 60.3992 105.8 61.5992 105.7 62.9992C105.6 63.7992 105.3 64.4992 104.6 65.0992C103.3 66.3992 101.7 66.9992 100 67.3992C96.3 68.3992 92.5 68.4992 88.7 68.2992C88.6 68.2992 88.5 68.1992 88.4 68.0992C88.6 67.9992 88.8 67.9992 89 67.8992C91 67.3992 92.8 66.6992 94.5 65.5992C95.6 64.8992 96.5 63.9992 97 62.6992C97.3 61.5992 97 60.6992 96.6 59.6992C96.5 59.5992 96.2 59.4992 96 59.4992C92.7 59.8992 89.5 60.3992 86.2 60.6992C81.6 61.0992 76.9 61.0992 72.4 60.0992C71.4 59.7992 70.4 59.4992 69.4 59.1992C69 59.0992 68.8 59.0992 68.5 59.3992C67.6 60.2992 66.7 61.1992 65.7 61.9992C66.5 60.8992 67.1 59.6992 68 58.5992C67.8 58.4992 67.6 58.2992 67.5 58.1992C65.4 56.7992 64.8 54.6992 65.8 52.2992C66.3 50.9992 67.2 49.8992 68.2 48.8992C70.6 46.4992 73.4 44.6992 76.4 43.0992C76.5 42.9992 76.6 42.9992 76.8 42.9992C74.8 45.7992 72.8 48.3992 72.8 51.9992C75.3 49.1992 77.6 46.5992 80 43.8992C77.4 42.0992 74.8 40.3992 72.2 38.5992V38.4992C72.3 38.5992 72.5 38.5992 72.6 38.5992C75.4 39.7992 78.2 40.9992 81 42.2992C81.4 42.4992 81.7 42.3992 82.1 42.0992C84.7 39.7992 87.3 37.5992 90.4 35.8992C92 34.9992 93.7 34.1992 95.7 34.1992C97 34.1992 98.1 34.6992 98.8 35.7992C99.8 37.1992 100.3 38.7992 100.4 40.5992C100.6 43.6992 100 46.6992 99 49.6992C98.7 50.4992 98.4 51.1992 98.2 51.9992C98.1 51.9992 98.1 51.9992 98 51.9992C98 51.7992 97.9 51.5992 97.9 51.3992C97.8 49.4992 97.6 47.5992 96.9 45.8992C96.6 45.0992 96.1 44.2992 95.6 43.4992C94.9 42.5992 94 42.0992 92.8 42.0992C90.2 42.1992 88.1 43.4992 85.8 44.7992C86.9 45.3992 87.9 45.9992 88.9 46.5992C93 48.9992 97 51.5992 100.5 54.6992C101.1 55.1992 101.6 55.7992 102.3 56.2992C102.5 56.4992 102.9 56.5992 103.1 56.5992C104.4 56.4992 105.6 56.3992 106.8 56.2992C106.9 56.2992 107.1 56.2992 107.2 56.2992C107.1 56.2992 107.1 56.3992 107.1 56.3992ZM73.8 53.9992C74.3 54.2992 74.7 54.5992 75.1 54.7992C76.9 55.7992 79 56.1992 81 56.5992C85.4 57.3992 89.9 57.3992 94.3 57.3992C94.5 57.3992 94.7 57.2992 95 57.2992C91.6 52.8992 87.4 49.5992 83.1 46.1992C80 48.8992 77 51.3992 73.8 53.9992Z" fill="#A3A3A3"/>
<path d="M153.3 44.3C153.4 44.6 153.4 44.7 153.6 44.8C154.4 46.1 155.1 47.3 155.9 48.6C156.2 48.4 156.3 48.2 156.5 48.1C160.2 44.5 163.7 40.9 167.4 37.3C167.8 36.9 168.4 36.7 168.9 36.7C170 36.6 171.4 36.4 172.1 37C172.8 37.5 172.9 38.9 173.3 39.9C174.2 42.5 175.1 45.1 176 47.7C176.1 48 176.2 48.4 176.4 48.9C174.6 48.9 173.1 49 171.5 48.8C171.2 48.8 171 48.2 170.9 47.8C170.8 47 170.4 46.7 169.6 46.7C167.8 46.8 166 46.8 164.2 46.7C163.3 46.7 162.7 46.9 162.2 47.6C161.5 48.7 160.6 48.9 159.3 48.9C156.7 48.8 154.1 48.8 151.5 48.9C150.7 48.9 150.3 48.7 150 48C149.6 47.1 149.1 46.2 148.6 45.3C148.3 44.7 148 44.5 147.3 44.5C147.2 44.5 147 44.5 146.9 44.5C144.9 44.6 145.3 44.2 144.7 46.1C143.8 48.8 143.8 48.8 141 48.8C140.6 48.8 140.2 48.7 139.6 48.7C140 47.3 140.4 46 140.9 44.7C141.7 42.2 142.5 39.9 143.3 37.4C143.5 36.7 143.9 36.5 144.6 36.5C148.1 36.5 151.5 36.5 155 36.5C156.3 36.5 157.7 36.6 158.4 38C159.2 39.4 158.4 40.6 157.7 41.8C156.6 43.6 155.1 44.3 153.3 44.3ZM146.3 41.8C148.4 41.8 150.6 41.8 152.7 41.8C152.9 41.8 153.1 41.7 153.3 41.6C153.6 41.2 153.8 40.8 154.1 40.4C153.7 40.2 153.3 39.9 153 39.9C151.5 39.8 149.9 39.8 148.3 39.9C146.6 39.8 146.5 39.9 146.3 41.8ZM169.9 44C169.6 42.7 169.3 41.6 169 40.3C167.8 41.6 166.8 42.7 165.6 44C167.1 44 168.4 44 169.9 44Z" fill="#A3A3A3"/>
<path d="M155.3 61.4984C156.2 62.9984 157.1 64.3984 158.1 65.9984C156.1 65.9984 154.5 65.9984 152.8 65.9984C152.6 65.9984 152.3 65.6984 152.2 65.3984C151.7 64.5984 151.3 63.7984 150.9 62.8984C150.5 61.9984 149.9 61.6984 148.9 61.6984C147.3 61.7984 147.3 61.6984 146.8 63.0984C146.5 63.9984 146.4 65.1984 145.7 65.6984C145.1 66.0984 143.9 65.7984 142.9 65.8984C142.5 65.8984 142.1 65.8984 141.6 65.8984C141.7 65.3984 141.9 64.9984 141.9 64.6984C143 61.3984 144.1 58.0984 145.2 54.7984C145.5 54.0984 145.8 53.8984 146.5 53.8984C150 53.9984 153.5 53.8984 157 53.8984C157.3 53.8984 157.6 53.8984 157.9 53.9984C160.2 54.2984 161.1 55.6984 160.3 57.7984C159.5 59.7984 158.2 61.0984 156 61.3984C155.7 61.2984 155.6 61.3984 155.3 61.4984ZM148.4 58.6984C150.6 58.6984 152.7 58.6984 154.9 58.6984C155.1 58.6984 155.3 58.5984 155.5 58.3984C155.8 57.9984 155.9 57.5984 156.1 57.1984C155.7 56.9984 155.3 56.7984 155 56.6984C153.4 56.5984 151.9 56.6984 150.3 56.6984C148.7 56.7984 148.5 56.8984 148.4 58.6984Z" fill="#A3A3A3"/>
<path d="M218.5 53.8992C218.2 54.6992 218.1 55.4992 217.7 55.9992C217.6 56.2992 217 56.4992 216.7 56.4992C213.7 56.5992 210.8 56.5992 207.9 56.4992C206.9 56.4992 206.5 56.7992 206.5 57.8992C210 57.8992 213.4 57.8992 217.1 57.8992C216.8 58.7992 216.7 59.4992 216.3 60.1992C216.2 60.4992 215.6 60.6992 215.2 60.6992C212.4 60.7992 209.7 60.6992 206.9 60.6992C205.1 60.6992 205.5 60.3992 204.9 62.1992C204.8 62.4992 204.8 62.6992 204.6 63.0992C208.2 63.0992 211.6 63.0992 215.2 63.0992C214.9 63.9992 214.7 64.6992 214.4 65.3992C214.3 65.5992 214 65.7992 213.7 65.7992C209 65.7992 204.3 65.7992 199.7 65.7992C199.6 65.7992 199.6 65.6992 199.4 65.6992C199.5 65.3992 199.5 65.1992 199.5 64.9992C200.6 61.5992 201.8 58.1992 202.8 54.7992C203.1 53.9992 203.4 53.6992 204.3 53.6992C208.5 53.7992 212.7 53.6992 217 53.6992C217.5 53.8992 217.8 53.8992 218.5 53.8992Z" fill="#A3A3A3"/>
<path d="M187.1 59.599C186.5 61.399 185.8 63.099 185.3 64.999C185 65.799 184.7 66.099 183.9 65.999C182.9 65.899 181.9 65.999 180.7 65.999C181 65.099 181.2 64.399 181.4 63.699C182.4 60.699 183.4 57.799 184.4 54.799C184.8 53.499 185 53.399 186.1 54.199C188.9 55.999 191.7 57.799 194.5 59.599C194.8 59.799 195.1 59.899 195.5 60.199C195.9 58.899 196.4 57.599 196.8 56.399C197.6 53.999 197.6 53.999 200.1 54.099C200.6 54.099 201.2 54.099 201.8 54.099C201.7 54.599 201.6 54.899 201.5 55.199C200.4 58.599 199.2 62.099 198.1 65.499C197.7 66.599 197.5 66.699 196.5 65.999C193.6 64.099 190.8 62.199 187.9 60.399C187.7 59.999 187.4 59.899 187.1 59.599Z" fill="#A3A3A3"/>
<path d="M215.7 65.199C216.4 64.199 216.8 63.399 217.4 62.799C217.6 62.599 218.2 62.499 218.5 62.699C220.9 63.399 223.3 63.499 225.7 63.299C226.3 63.199 227 62.999 227.7 62.799C228 62.699 228.1 62.299 228.2 61.999C227.9 61.899 227.7 61.599 227.4 61.599C226 61.399 224.4 61.299 223 61.199C221.8 60.999 220.6 60.799 219.5 60.399C218.2 59.899 217.8 58.899 218.3 57.499C218.7 56.199 219.7 55.399 220.8 54.999C222.3 54.499 223.9 53.899 225.5 53.899C228.1 53.799 230.8 54.099 233.4 54.199C233.8 54.199 234.3 54.499 234.8 54.699C234.2 55.599 233.8 56.299 233.2 56.999C233.1 57.199 232.5 57.199 232.3 57.099C229.7 56.299 227.1 56.199 224.4 56.499C224.2 56.499 224 56.499 223.9 56.599C223.6 56.799 223.3 57.099 223 57.299C223.3 57.499 223.6 57.699 223.9 57.799C225.3 57.999 226.9 58.099 228.3 58.299C229.4 58.499 230.5 58.699 231.5 59.099C232.8 59.499 233.2 60.499 232.8 61.899C232.3 63.399 231.2 64.399 229.8 64.899C226.7 66.199 223.3 66.299 220 65.999C218.7 65.899 217.3 65.499 215.7 65.199Z" fill="#A3A3A3"/>
<path d="M134.9 65.9983C133.2 65.9983 131.6 66.0983 130.1 65.8983C129.8 65.8983 129.5 65.2983 129.4 64.9983C129.3 64.0983 128.8 63.7983 127.9 63.8983C126.2 63.9983 124.4 63.9983 122.7 63.8983C121.8 63.7983 121.1 64.0983 120.6 64.7983C120 65.7983 119 66.0983 117.8 65.9983C116.7 65.8983 115.6 65.9983 114.5 65.9983C114.4 65.8983 114.4 65.7983 114.4 65.6983C115 65.0983 115.5 64.4983 116.1 63.8983C119.2 60.7983 122.4 57.6983 125.5 54.4983C126.1 53.8983 126.6 53.6983 127.5 53.6983C128.5 53.7983 129.8 53.3983 130.5 53.8983C131.2 54.3983 131.3 55.6983 131.7 56.5983C132.6 59.2983 133.6 62.0983 134.5 64.7983C134.6 65.1983 134.8 65.4983 134.9 65.9983ZM127.4 57.2983C126.2 58.5983 125.2 59.6983 124.1 60.9983C125.7 60.9983 127 60.9983 128.4 60.9983C128 59.7983 127.8 58.5983 127.4 57.2983Z" fill="#A3A3A3"/>
<path d="M129.7 36.8C129.2 38.2 128.8 39.4 128.4 40.6C128 41.7 127.6 42.7 127.3 43.7C127 44.8 127.3 45.6 128.4 45.8C130.2 46.3 132 46.2 133.6 45.4C134.4 45 135 44.2 135.3 43.4C136.1 41.5 136.7 39.6 137.3 37.5C137.6 36.7 137.9 36.5 138.7 36.5C139.7 36.6 140.7 36.5 141.7 36.5C141.8 36.7 141.9 36.8 141.8 36.8C140.9 39.6 140 42.5 138.9 45.2C138.3 46.7 136.7 47.5 135.2 48C132.1 49.1 128.9 49.2 125.8 48.4C125 48.2 124.4 47.8 123.7 47.4C122.7 46.8 122.3 45.7 122.6 44.6C123.4 42.1 124.2 39.6 125.1 37C125.2 36.8 125.4 36.5 125.6 36.5C126.9 36.8 128.1 36.8 129.7 36.8Z" fill="#A3A3A3"/>
<path d="M185.4 36.7988C184.4 39.8988 183.4 42.7988 182.4 45.8988C185.8 45.8988 189 45.8988 192.4 45.8988C192.1 46.8988 191.8 47.7988 191.5 48.5988C191.4 48.7988 191.1 48.8988 190.9 48.8988C186.4 48.8988 182 48.8988 177.3 48.8988C177.4 48.4988 177.4 48.0988 177.5 47.7988C178.6 44.3988 179.8 40.9988 180.8 37.6988C181.1 36.9988 181.4 36.7988 182.1 36.7988C183.1 36.7988 184.1 36.7988 185.4 36.7988Z" fill="#A3A3A3"/>
<path d="M164.4 62.8988C167.7 62.8988 170.9 62.8988 174.4 62.8988C174 63.9988 173.8 64.8988 173.4 65.6988C173.3 65.7988 173 65.9988 172.8 65.9988C168.3 65.9988 163.9 65.9988 159.4 65.8988C159.4 65.8988 159.3 65.7988 159.2 65.7988C159.3 65.4988 159.3 65.1988 159.4 64.8988C160.5 61.4988 161.7 58.0988 162.7 54.6988C162.9 54.0988 163.2 53.7988 164 53.7988C165.1 53.8988 166.1 53.7988 167.4 53.7988C166.3 56.8988 165.4 59.7988 164.4 62.8988Z" fill="#A3A3A3"/>
<path d="M135.6 65.9997C136 64.6997 136.4 63.6997 136.7 62.6997C137.5 60.1997 138.4 57.6997 139.2 55.0997C139.5 54.1997 139.9 53.6997 141 53.7997C141.9 53.8997 142.9 53.7997 144 53.7997C143.9 54.1997 143.9 54.4997 143.7 54.6997C142.6 58.0997 141.4 61.4997 140.3 64.9997C140 65.6997 139.7 65.8997 139 65.8997C137.9 65.8997 136.9 65.9997 135.6 65.9997Z" fill="#A3A3A3"/>
<path d="M183 53.8989C182.8 54.5989 182.6 55.1989 182.4 55.6989C181.4 58.7989 180.3 62.0989 179.3 65.1989C179.1 65.7989 178.8 66.0989 178.2 65.9989C177.1 65.8989 176 65.9989 174.7 65.9989C175.2 64.3989 175.7 63.0989 176.1 61.6989C176.8 59.4989 177.6 57.3989 178.2 55.1989C178.5 54.0989 179 53.7989 180.1 53.8989C181.1 53.9989 182 53.8989 183 53.8989Z" fill="#A3A3A3"/>
</svg>
