<svg width="142" height="34" viewBox="0 0 142 34" fill="none" xmlns="http://www.w3.org/2000/svg">
<path d="M15.261 23.6565C14.4049 23.6565 13.6128 23.4904 12.8845 23.1582C12.169 22.826 11.5812 22.3469 11.1213 21.7208L12.5395 20.0151C12.91 20.5262 13.3125 20.9095 13.7469 21.165C14.1941 21.4205 14.6796 21.5483 15.2035 21.5483C16.5962 21.5483 17.2925 20.7242 17.2925 19.076V12.1381H12.5203V10.0491H19.784V18.9418C19.784 20.5262 19.3943 21.708 18.6149 22.4874C17.8483 23.2668 16.7303 23.6565 15.261 23.6565ZM21.1006 23.4648L27.1377 10.0491H29.5909L35.6471 23.4648H33.0406L27.8468 11.3715H28.8434L23.6688 23.4648H21.1006ZM23.8796 20.3601L24.5504 18.4052H31.7949L32.4657 20.3601H23.8796ZM37.3533 23.4648V10.0491H42.8729C44.0612 10.0491 45.0769 10.2407 45.9202 10.624C46.7763 11.0073 47.4343 11.5567 47.8943 12.2723C48.3542 12.9878 48.5842 13.8374 48.5842 14.8213C48.5842 15.8051 48.3542 16.6547 47.8943 17.3703C47.4343 18.073 46.7763 18.616 45.9202 18.9993C45.0769 19.3698 44.0612 19.5551 42.8729 19.5551H38.7332L39.8448 18.4243V23.4648H37.3533ZM46.131 23.4648L42.7388 18.5968H45.4028L48.8142 23.4648H46.131ZM39.8448 18.6927L38.7332 17.5044H42.7579C43.8568 17.5044 44.6809 17.268 45.2303 16.7953C45.7925 16.3225 46.0735 15.6645 46.0735 14.8213C46.0735 13.9652 45.7925 13.3072 45.2303 12.8472C44.6809 12.3872 43.8568 12.1573 42.7579 12.1573H38.7332L39.8448 10.9307V18.6927ZM50.6056 19.1335V17.1403H55.876V19.1335H50.6056ZM65.0304 23.6565C64.0082 23.6565 63.0563 23.4904 62.1747 23.1582C61.3059 22.8132 60.5457 22.3341 59.894 21.7208C59.2552 21.0947 58.7569 20.3601 58.3991 19.5168C58.0414 18.6735 57.8625 17.7536 57.8625 16.757C57.8625 15.7604 58.0414 14.8404 58.3991 13.9971C58.7569 13.1539 59.2616 12.4256 59.9132 11.8123C60.5648 11.1862 61.3251 10.7071 62.1939 10.3749C63.0627 10.0299 64.0146 9.85742 65.0495 9.85742C66.1483 9.85742 67.1513 10.0491 68.0585 10.4324C68.9657 10.8029 69.7323 11.3587 70.3583 12.0998L68.7484 13.6138C68.2629 13.09 67.7199 12.7003 67.1194 12.4447C66.5189 12.1764 65.8673 12.0423 65.1645 12.0423C64.4618 12.0423 63.8166 12.1573 63.2288 12.3873C62.6539 12.6172 62.1492 12.943 61.7147 13.3647C61.2931 13.7863 60.9609 14.2846 60.7181 14.8596C60.4882 15.4345 60.3732 16.067 60.3732 16.757C60.3732 17.4469 60.4882 18.0794 60.7181 18.6543C60.9609 19.2293 61.2931 19.7276 61.7147 20.1492C62.1492 20.5709 62.6539 20.8967 63.2288 21.1267C63.8166 21.3567 64.4618 21.4716 65.1645 21.4716C65.8673 21.4716 66.5189 21.3439 67.1194 21.0883C67.7199 20.82 68.2629 20.4175 68.7484 19.8809L70.3583 21.4141C69.7323 22.1424 68.9657 22.6982 68.0585 23.0815C67.1513 23.4648 66.142 23.6565 65.0304 23.6565ZM70.5675 23.4648L76.6046 10.0491H79.0578L85.114 23.4648H82.5075L77.3137 11.3715H78.3103L73.1357 23.4648H70.5675ZM73.3465 20.3601L74.0173 18.4052H81.2618L81.9326 20.3601H73.3465ZM86.8202 23.4648V10.0491H92.3398C93.5281 10.0491 94.5439 10.2407 95.3871 10.624C96.2432 11.0073 96.9012 11.5567 97.3612 12.2723C97.8211 12.9878 98.0511 13.8374 98.0511 14.8213C98.0511 15.8051 97.8211 16.6547 97.3612 17.3703C96.9012 18.073 96.2432 18.616 95.3871 18.9993C94.5439 19.3698 93.5281 19.5551 92.3398 19.5551H88.2001L89.3117 18.4243V23.4648H86.8202ZM95.598 23.4648L92.2057 18.5968H94.8697L98.2811 23.4648H95.598ZM89.3117 18.6927L88.2001 17.5044H92.2248C93.3237 17.5044 94.1478 17.268 94.6972 16.7953C95.2594 16.3225 95.5405 15.6645 95.5405 14.8213C95.5405 13.9652 95.2594 13.3072 94.6972 12.8472C94.1478 12.3872 93.3237 12.1573 92.2248 12.1573H88.2001L89.3117 10.9307V18.6927ZM107.106 23.6565C106.058 23.6565 105.093 23.4904 104.212 23.1582C103.343 22.8132 102.583 22.3341 101.931 21.7208C101.279 21.0947 100.775 20.3601 100.417 19.5168C100.059 18.6735 99.8804 17.7536 99.8804 16.757C99.8804 15.7604 100.059 14.8404 100.417 13.9971C100.775 13.1539 101.279 12.4256 101.931 11.8123C102.595 11.1862 103.368 10.7071 104.25 10.3749C105.132 10.0299 106.096 9.85742 107.144 9.85742C108.281 9.85742 109.303 10.0427 110.211 10.4132C111.13 10.7837 111.903 11.3268 112.53 12.0423L110.958 13.5755C110.434 13.0516 109.866 12.6683 109.252 12.4256C108.652 12.17 107.987 12.0423 107.259 12.0423C106.556 12.0423 105.905 12.1573 105.304 12.3873C104.704 12.6172 104.186 12.943 103.752 13.3647C103.317 13.7863 102.979 14.2846 102.736 14.8596C102.506 15.4345 102.391 16.067 102.391 16.757C102.391 17.4341 102.506 18.0602 102.736 18.6352C102.979 19.2101 103.317 19.7148 103.752 20.1492C104.186 20.5709 104.697 20.8967 105.285 21.1267C105.873 21.3567 106.524 21.4716 107.24 21.4716C107.904 21.4716 108.543 21.3694 109.156 21.165C109.782 20.9478 110.377 20.59 110.939 20.0917L112.357 21.9508C111.654 22.513 110.837 22.941 109.904 23.2349C108.984 23.516 108.051 23.6565 107.106 23.6565ZM110 21.625V16.6036H112.357V21.9508L110 21.625ZM121.929 23.6565C120.882 23.6565 119.917 23.484 119.035 23.139C118.154 22.7941 117.387 22.3149 116.736 21.7016C116.084 21.0756 115.579 20.3473 115.222 19.5168C114.864 18.6735 114.685 17.7536 114.685 16.757C114.685 15.7604 114.864 14.8468 115.222 14.0163C115.579 13.173 116.084 12.4447 116.736 11.8315C117.387 11.2054 118.154 10.7199 119.035 10.3749C119.917 10.0299 120.875 9.85742 121.91 9.85742C122.958 9.85742 123.916 10.0299 124.785 10.3749C125.667 10.7199 126.433 11.2054 127.085 11.8315C127.737 12.4447 128.241 13.173 128.599 14.0163C128.957 14.8468 129.136 15.7604 129.136 16.757C129.136 17.7536 128.957 18.6735 128.599 19.5168C128.241 20.3601 127.737 21.0883 127.085 21.7016C126.433 22.3149 125.667 22.7941 124.785 23.139C123.916 23.484 122.964 23.6565 121.929 23.6565ZM121.91 21.4716C122.587 21.4716 123.213 21.3567 123.788 21.1267C124.363 20.8967 124.862 20.5709 125.283 20.1492C125.705 19.7148 126.031 19.2165 126.261 18.6543C126.504 18.0794 126.625 17.4469 126.625 16.757C126.625 16.067 126.504 15.4409 126.261 14.8788C126.031 14.3038 125.705 13.8055 125.283 13.3839C124.862 12.9494 124.363 12.6172 123.788 12.3873C123.213 12.1573 122.587 12.0423 121.91 12.0423C121.233 12.0423 120.607 12.1573 120.032 12.3873C119.47 12.6172 118.972 12.9494 118.537 13.3839C118.115 13.8055 117.783 14.3038 117.541 14.8788C117.311 15.4409 117.196 16.067 117.196 16.757C117.196 17.4341 117.311 18.0602 117.541 18.6352C117.783 19.2101 118.115 19.7148 118.537 20.1492C118.959 20.5709 119.457 20.8967 120.032 21.1267C120.607 21.3567 121.233 21.4716 121.91 21.4716Z" fill="#1E1E1E"/>
<rect x="1" y="1" width="140" height="32" stroke="#1E1E1E" stroke-width="1.1057"/>
</svg>
