<svg width="42" height="42" viewBox="0 0 42 42" fill="none" xmlns="http://www.w3.org/2000/svg">
<circle cx="21" cy="21" r="21" fill="white"/>
<path fill-rule="evenodd" clip-rule="evenodd" d="M28.9283 13.1163C29.1742 13.0133 29.4434 12.9778 29.7078 13.0134C29.9722 13.0491 30.2221 13.1546 30.4316 13.319C30.6411 13.4833 30.8025 13.7006 30.899 13.9481C30.9955 14.1956 31.0235 14.4643 30.9802 14.7262L28.7234 28.347C28.5044 29.6609 27.0556 30.4144 25.8446 29.7599C24.8316 29.2124 23.327 28.3688 21.9737 27.4886C21.297 27.048 19.2243 25.6371 19.479 24.6332C19.6979 23.7747 23.1807 20.549 25.1709 18.6312C25.952 17.8777 25.5958 17.443 24.6734 18.1361C22.3827 19.8569 18.7048 22.4737 17.4888 23.2104C16.4161 23.8599 15.8569 23.9708 15.1882 23.8599C13.9682 23.6579 12.8368 23.345 11.9134 22.9638C10.6655 22.449 10.7262 20.7421 11.9124 20.245L28.9283 13.1163Z" fill="#0063C7"/>
</svg>
