<svg width="42" height="42" viewBox="0 0 42 42" fill="none" xmlns="http://www.w3.org/2000/svg">
<circle cx="21" cy="21" r="21" fill="white"/>
<path d="M30.1963 27.2138H28.0065C27.1783 27.2138 26.9288 26.5686 25.4443 25.1397C24.1469 23.937 23.5989 23.7875 23.2707 23.7875C22.8168 23.7875 22.693 23.9075 22.693 24.5084V26.4024C22.693 26.9147 22.5203 27.2147 21.1288 27.2147C19.7789 27.1275 18.4699 26.733 17.3095 26.0638C16.1491 25.3946 15.1707 24.4698 14.4546 23.3656C12.7552 21.33 11.5723 18.9414 11 16.3893C11 16.0736 11.1248 15.7875 11.7504 15.7875H13.9384C14.5007 15.7875 14.7032 16.0284 14.9239 16.585C15.9862 19.5922 17.7989 22.2081 18.535 22.2081C18.8171 22.2081 18.9399 22.0881 18.9399 21.4116V18.3138C18.8469 16.9007 18.0667 16.7816 18.0667 16.2702C18.0765 16.1353 18.1407 16.0094 18.2455 15.9193C18.3503 15.8291 18.4876 15.7819 18.6281 15.7875H22.0674C22.5376 15.7875 22.693 16.0127 22.693 16.5536V20.735C22.693 21.1863 22.8946 21.3359 23.0366 21.3359C23.3187 21.3359 23.5356 21.1863 24.0528 20.6897C25.1611 19.3889 26.0668 17.9399 26.7417 16.3884C26.8104 16.2019 26.9409 16.0422 27.113 15.9339C27.2851 15.8255 27.4894 15.7744 27.6946 15.7884H29.8835C30.5399 15.7884 30.679 16.1041 30.5399 16.5545C29.7435 18.2698 28.7585 19.8981 27.6015 21.4116C27.3654 21.7577 27.2714 21.9377 27.6015 22.3438C27.8184 22.6595 28.5861 23.2761 29.1014 23.8622C29.8518 24.5822 30.4746 25.4148 30.9458 26.3267C31.1339 26.9138 30.8211 27.2138 30.1963 27.2138Z" fill="#0063C7"/>
</svg>
