<svg width="42" height="42" viewBox="0 0 42 42" fill="none" xmlns="http://www.w3.org/2000/svg">
<circle cx="21" cy="21" r="21" fill="white"/>
<path d="M28.0854 13.91C27.1639 12.9842 26.0664 12.25 24.8568 11.7504C23.6472 11.2508 22.3498 10.9957 21.0402 11.0001C15.5528 11.0001 11.0804 15.45 11.0804 20.91C11.0804 22.66 11.5427 24.36 12.407 25.86L11 31L16.2764 29.62C17.7337 30.41 19.3719 30.83 21.0402 30.83C26.5276 30.83 31 26.38 31 20.92C31 18.27 29.9648 15.78 28.0854 13.91ZM21.0402 29.15C19.5528 29.15 18.0955 28.75 16.8191 28L16.5176 27.82L13.3819 28.64L14.2161 25.6L14.0151 25.29C13.1885 23.9771 12.7497 22.4593 12.7487 20.91C12.7487 16.37 16.4673 12.67 21.0301 12.67C23.2412 12.67 25.3216 13.53 26.8794 15.09C27.6509 15.8539 28.2622 16.7626 28.678 17.7634C29.0938 18.7641 29.3057 19.8371 29.3015 20.92C29.3216 25.46 25.603 29.15 21.0402 29.15ZM25.5829 22.99C25.3317 22.87 24.1055 22.27 23.8844 22.18C23.6533 22.1 23.4925 22.06 23.3216 22.3C23.1508 22.55 22.6784 23.11 22.5377 23.27C22.397 23.44 22.2462 23.46 21.995 23.33C21.7437 23.21 20.9397 22.94 19.995 22.1C19.2513 21.44 18.7588 20.63 18.608 20.38C18.4673 20.13 18.5879 20 18.7186 19.87C18.8291 19.76 18.9698 19.58 19.0905 19.44C19.2111 19.3 19.2613 19.19 19.3417 19.03C19.4221 18.86 19.3819 18.72 19.3216 18.6C19.2613 18.48 18.7588 17.26 18.5578 16.76C18.3568 16.28 18.1457 16.34 17.995 16.33H17.5126C17.3417 16.33 17.0804 16.39 16.8492 16.64C16.6281 16.89 15.9849 17.49 15.9849 18.71C15.9849 19.93 16.8794 21.11 17 21.27C17.1206 21.44 18.7588 23.94 21.2513 25.01C21.8442 25.27 22.3065 25.42 22.6683 25.53C23.2613 25.72 23.804 25.69 24.2362 25.63C24.7186 25.56 25.7136 25.03 25.9146 24.45C26.1256 23.87 26.1256 23.38 26.0553 23.27C25.9849 23.16 25.8342 23.11 25.5829 22.99Z" fill="#0063C7"/>
</svg>
