<svg width="75" height="75" viewBox="0 0 75 75" fill="none" xmlns="http://www.w3.org/2000/svg">
<rect width="75" height="75" rx="10" fill="white"/>
<path d="M37.8517 66.0001C35.0988 66.0001 32.38 65.5903 29.7672 64.7774L29.026 64.5451L29.5315 63.9542C29.7159 63.7356 29.9072 63.5205 30.1053 63.3087C32.8377 60.3543 34.122 56.7406 34.0332 52.2697C34.0161 51.4295 33.9819 50.5756 33.9478 49.7457C33.9 48.5639 33.8487 47.3411 33.8487 46.132C33.8521 44.9059 34.0161 43.6968 34.1971 42.4603C34.2757 41.9139 34.5591 41.4084 34.8187 40.9746C35.8263 39.2907 37.1959 38.7443 39.013 39.301C39.9079 39.5742 40.7822 39.9329 41.6259 40.2812C42.0323 40.4486 42.4388 40.616 42.8486 40.7731C45.5298 41.8114 48.3954 42.3237 51.3738 42.3066C53.5802 42.293 55.831 42.1564 58.0101 42.0266C58.5464 41.9958 59.0826 41.9617 59.6188 41.9309L59.8067 41.9207C61.2856 41.8353 62.8124 41.7465 64.3801 41.8934L64.9129 41.9412L64.8412 42.4706C63.0173 55.8799 51.4182 65.9933 37.8585 65.9933L37.8517 66.0001ZM30.8396 64.026C33.1144 64.6578 35.4711 64.9755 37.8517 64.9755C50.718 64.9755 61.7501 55.5145 63.738 42.8805C62.4264 42.8053 61.1217 42.8805 59.8579 42.9522L59.6701 42.9624C59.1338 42.9932 58.601 43.0239 58.0648 43.0581C55.8754 43.1913 53.6109 43.3245 51.3738 43.3381C48.2793 43.362 45.2736 42.819 42.4729 41.7363C42.0596 41.5757 41.6464 41.4084 41.2331 41.2376C40.4099 40.8995 39.5595 40.5511 38.709 40.2915C37.3565 39.8748 36.4548 40.2403 35.6965 41.5142C35.4882 41.8592 35.2627 42.2588 35.2115 42.6175C35.0373 43.8129 34.8802 44.9844 34.8768 46.1423C34.8768 47.3275 34.9246 48.5366 34.9724 49.7081C35.0066 50.5415 35.0442 51.4022 35.0612 52.2526C35.1603 57.0002 33.7838 60.8461 30.8601 64.0089C30.8533 64.0157 30.8499 64.0191 30.8465 64.026H30.8396Z" fill="#0063C7"/>
<path d="M66.016 14.4461C65.4832 11.9528 64.0487 10.2006 61.6339 9.3843C59.2123 8.56116 56.9922 9.07349 55.1069 10.7949C53.3683 12.3831 52.6716 14.5896 53.0951 16.8131C53.2386 17.5611 53.505 18.3091 53.9046 19.0366C55.4006 21.7724 56.9376 24.4843 58.4609 27.2065C58.9903 28.1492 59.5607 28.1663 60.1277 27.2475C60.4624 26.7078 60.7937 26.1682 61.125 25.6285C62.0472 24.1428 62.9626 22.6536 63.8813 21.1679C64.7899 19.6923 66.098 17.7865 66.1287 15.925V15.4981C66.1082 14.9721 66.0434 14.5691 66.016 14.4461ZM59.53 18.3125C58.0818 18.2954 56.9205 17.1136 56.9171 15.6484C56.9137 14.1524 58.0818 12.9808 59.5709 12.9877C61.0328 12.9945 62.1838 14.1592 62.1872 15.6347C62.1906 17.1205 60.9952 18.3261 59.53 18.3125Z" stroke="#0063C7" stroke-miterlimit="10"/>
<path d="M25.7916 63.1891L25.4876 63.0354C24.1863 62.3694 22.926 61.594 21.7408 60.7231L21.3583 60.443L21.6076 60.04C22.0687 59.2988 22.5127 58.5781 22.9567 57.8575L22.9875 57.8062C24.7226 54.9884 24.9958 51.6412 23.7286 48.6253C22.4683 45.6196 19.9067 43.4747 16.6961 42.7404C14.9815 42.3476 13.2498 42.4295 11.5455 42.9863L10.9648 43.1775L10.8794 42.573C10.7018 41.3229 10.613 40.0421 10.613 38.7613C10.613 38.1601 10.6301 37.6 10.6677 37.0433L10.6882 36.7427L10.9614 36.6129C12.3652 35.9503 13.7724 36.1279 14.9678 36.3841C17.6866 36.975 20.4361 36.7461 23.1378 35.6975C24.989 34.9803 26.4269 33.7302 27.414 31.9849C27.7419 31.4042 28.0595 30.8373 28.3567 30.2635C28.9885 29.0475 29.9483 28.1527 31.2155 27.6096C31.6287 27.432 32.0489 27.2578 32.4656 27.087C33.1179 26.8206 33.7908 26.5439 34.4363 26.2434C39.3786 23.9413 42.3876 20.5053 43.6377 15.7372C43.8427 14.9551 43.911 14.1422 43.9861 13.2815L44.0817 12.2295L44.6658 12.3798C46.3018 12.8033 47.8969 13.3771 49.4031 14.0875L49.7344 14.2447L49.6935 14.6067C49.4646 16.6902 49.8984 18.7326 50.9811 20.6727L51.8145 22.1687C53.8296 25.7789 55.8414 29.3925 57.8668 32.9993C58.181 33.5594 58.649 33.8839 59.1476 33.8976C59.6634 33.9044 60.145 33.6004 60.4899 33.0471C61.033 32.183 61.5692 31.3154 62.1055 30.4445L63.1882 28.6923L63.5434 29.6999C64.5441 32.5314 65.0633 35.496 65.0872 38.5119V39.0721L64.5339 39.0277C63.943 38.9799 63.3658 38.9423 62.792 38.9662C61.0706 39.0379 59.3218 39.1404 57.6277 39.2429C56.5006 39.3112 55.37 39.3761 54.2429 39.4341C49.4373 39.6835 45.5607 39.0277 42.0461 37.3643C41.0112 36.8793 39.9046 36.5275 38.8457 36.3499C36.209 35.9025 34.1357 36.8759 32.4997 39.3214C31.5297 40.7696 31.0447 42.4944 31.0174 44.5882C31.0037 45.5787 31.0413 46.5931 31.0788 47.5767C31.1096 48.434 31.1437 49.3221 31.1437 50.1964C31.1472 52.2014 31.0925 53.8169 30.973 55.2787C30.8124 57.2871 29.9005 59.128 28.1039 61.0715C27.455 61.7717 26.7343 62.3899 26.0546 62.9671L25.795 63.1857L25.7916 63.1891ZM22.7347 60.1732C23.6672 60.8324 24.6474 61.4335 25.655 61.9629C26.2322 61.4711 26.8265 60.9451 27.3525 60.3747C28.9851 58.6089 29.8117 56.966 29.9517 55.1968C30.0679 53.7657 30.1225 52.1774 30.1191 50.1964C30.1191 49.3391 30.0849 48.4614 30.0542 47.6109C30.0166 46.617 29.9791 45.5889 29.9927 44.5711C30.02 42.269 30.5631 40.3632 31.6458 38.7442C33.5039 35.964 35.9835 34.8163 39.0165 35.3321C40.1641 35.5234 41.363 35.9025 42.4833 36.4285C45.8407 38.0167 49.5568 38.6417 54.1883 38.4026C55.3154 38.3446 56.4391 38.2763 57.5662 38.2114C59.2637 38.1089 61.0159 38.0064 62.7476 37.9347C63.1882 37.9142 63.6185 37.9279 64.0523 37.9552C63.984 35.6087 63.6049 33.2999 62.9184 31.0661C62.3992 31.9063 61.88 32.7465 61.3575 33.5833C60.8144 34.4509 59.9981 34.9427 59.1237 34.9154C58.2528 34.8949 57.4706 34.3757 56.9753 33.4945C54.9534 29.8877 52.9382 26.2741 50.923 22.6605L50.0896 21.1645C48.9625 19.1493 48.4775 17.0283 48.6449 14.856C47.4768 14.3266 46.254 13.8792 45.0005 13.524C44.9288 14.3403 44.8468 15.1771 44.6351 15.9866C43.3201 21.0006 40.0378 24.7576 34.8735 27.1622C34.2075 27.473 33.5244 27.753 32.8618 28.0263C32.4485 28.1971 32.0352 28.3644 31.6287 28.542C30.5699 28.9963 29.8014 29.7101 29.2755 30.7245C28.9681 31.3154 28.647 31.8927 28.3123 32.4801C27.2091 34.4372 25.5935 35.8376 23.5169 36.6437C20.6239 37.7674 17.6763 38.0133 14.7595 37.378C13.8168 37.1731 12.7272 37.0262 11.6821 37.4156C11.6582 37.8459 11.6479 38.2865 11.6479 38.751C11.6479 39.7825 11.7094 40.814 11.829 41.8284C13.5231 41.3741 15.2377 41.3434 16.9386 41.7328C20.4737 42.5423 23.2983 44.9058 24.6884 48.2189C26.0819 51.5422 25.7848 55.2309 23.8721 58.3322L23.8414 58.3834C23.4793 58.9709 23.1173 59.5618 22.745 60.1629L22.7347 60.1732Z" fill="#0063C7"/>
<path d="M17.8402 33.8229C16.9316 33.8229 16.0504 33.7238 15.1726 33.5257C13.9465 33.2491 12.8637 33.1944 11.863 33.3584L11.1116 33.4813L11.2789 32.7402C12.6178 26.8108 15.9753 21.4246 20.7263 17.5787C25.549 13.6747 31.632 11.5264 37.8483 11.5264C38.8388 11.5264 39.8293 11.5776 40.7925 11.6835L41.2536 11.7347V12.1992C41.2228 15.7924 39.7473 18.8868 36.8646 21.3938C35.15 22.8864 33.1144 23.7539 31.1709 24.5156C29.5998 25.1338 27.9911 25.9057 26.8845 27.3744C26.2526 28.218 25.7847 28.9763 25.4602 29.6867C24.3911 32.0298 22.4443 33.3516 19.5103 33.7204C18.94 33.7922 18.3832 33.8297 17.8333 33.8297L17.8402 33.8229ZM13.0208 32.2415C13.7688 32.2415 14.5544 32.3371 15.3981 32.5284C16.6891 32.8222 17.9939 32.8768 19.3874 32.6992C21.9729 32.3713 23.609 31.2783 24.5312 29.2563C24.8864 28.4776 25.3919 27.6579 26.0681 26.7528C27.3319 25.0792 29.1694 24.198 30.7986 23.5558C32.6567 22.8283 34.6035 22.0018 36.1918 20.6185C38.7534 18.3916 40.0718 15.7821 40.2118 12.6569C39.4331 12.5886 38.6407 12.551 37.8483 12.551C25.7505 12.551 15.4049 20.6185 12.447 32.262C12.6349 32.2483 12.8262 32.2415 13.0174 32.2415H13.0208Z" fill="#0063C7"/>
<path d="M21.0816 51.5695C20.5692 48.0788 17.5841 45.6777 14.0319 45.9134C13.3966 45.9544 12.7853 46.0944 12.2114 46.3233C9.78984 47.2762 8.03767 49.7627 8.0001 52.8845C7.99327 53.6769 8.32799 54.8211 8.92912 55.897C10.4695 58.6499 12.0031 61.4028 13.5469 64.1523C14.0114 64.9788 14.6194 64.9823 15.1215 64.166C16.4399 62.0381 17.7583 59.9068 19.0664 57.7721C19.4387 57.171 19.8076 56.5698 20.1764 55.9653C20.9996 54.6161 21.3172 53.1509 21.0816 51.5695ZM17.2049 52.7444C17.1981 52.8264 17.1879 52.9084 17.1708 52.9869C17.1674 53.0143 17.1639 53.0416 17.1571 53.0655V53.0758C17.14 53.1509 17.123 53.226 17.0991 53.2978C17.0786 53.3729 17.0512 53.448 17.0205 53.5232C16.9966 53.5778 16.9761 53.6291 16.9488 53.6769C16.9112 53.7554 16.8702 53.8306 16.8258 53.9023C16.7985 53.9467 16.7712 53.9911 16.7404 54.0321C16.7404 54.0389 16.737 54.0423 16.7302 54.0492C16.6994 54.097 16.6653 54.1414 16.6311 54.1824C16.5252 54.3156 16.4057 54.4351 16.2793 54.541C16.2588 54.5581 16.2383 54.5752 16.2179 54.5888C16.1803 54.623 16.1427 54.6503 16.1017 54.6776C16.0266 54.7289 15.948 54.7767 15.8695 54.8211C15.8558 54.8279 15.8421 54.8382 15.8251 54.845C15.6987 54.9133 15.5689 54.968 15.4289 55.0124C15.4015 55.0226 15.3742 55.0328 15.3435 55.0397C15.3435 55.0397 15.3412 55.0408 15.3366 55.0431C15.2957 55.0533 15.2581 55.067 15.2171 55.0738C15.2034 55.0738 15.1864 55.0807 15.1693 55.0841C15.1556 55.0875 15.1385 55.0943 15.1215 55.0943C15.0532 55.1114 14.9814 55.1216 14.9063 55.1285C14.8858 55.1319 14.8619 55.1319 14.8414 55.1353C14.8277 55.1387 14.8141 55.1387 14.8004 55.1387C14.7355 55.1456 14.6672 55.149 14.5989 55.149C13.1097 55.1592 11.9416 53.9877 11.9484 52.4883C11.9484 52.42 11.9519 52.3517 11.9587 52.2833C11.9655 52.1741 11.9792 52.0682 11.9997 51.9623C12.0031 51.9452 12.0065 51.9281 12.0099 51.9145C12.0202 51.8701 12.0304 51.8257 12.0441 51.7847C12.0543 51.7403 12.068 51.6959 12.0817 51.6549C12.15 51.4397 12.2456 51.2382 12.3651 51.0538C12.3856 51.0162 12.4095 50.9855 12.4335 50.9513C12.4335 50.9445 12.4335 50.941 12.4437 50.9376C12.4608 50.9035 12.4881 50.8727 12.512 50.842C12.5188 50.8352 12.5223 50.8283 12.5291 50.8249C12.5462 50.8044 12.5632 50.7839 12.5803 50.7634C12.6008 50.7327 12.6281 50.7054 12.6555 50.6781C12.6794 50.6541 12.6999 50.6302 12.7238 50.6063C12.8057 50.5209 12.8945 50.4424 12.9902 50.3741C13.0585 50.3194 13.1302 50.2682 13.2054 50.2272C13.2498 50.1965 13.2942 50.1691 13.342 50.1486C13.4 50.1111 13.4615 50.0838 13.523 50.0598C13.5435 50.0496 13.5674 50.0394 13.5879 50.0325C13.5947 50.0257 13.6016 50.0223 13.6084 50.0223C13.6221 50.0154 13.6323 50.0086 13.646 50.0086C13.7177 49.9779 13.786 49.9574 13.8577 49.9369C13.8953 49.9266 13.9363 49.913 13.9773 49.9061C13.9841 49.9027 13.9909 49.9027 13.9978 49.9027C14.0183 49.8959 14.0387 49.8925 14.0592 49.8891C14.0763 49.8822 14.0934 49.8788 14.1071 49.8822C14.1685 49.8652 14.2334 49.8583 14.2949 49.8515C14.3837 49.8413 14.4725 49.8344 14.5647 49.8344C16.0334 49.8208 17.2186 51.0162 17.2152 52.5088C17.2152 52.5907 17.2118 52.6659 17.2049 52.7444Z" stroke="#0063C7" stroke-miterlimit="10"/>
</svg>
