<svg width="75" height="75" viewBox="0 0 75 75" fill="none" xmlns="http://www.w3.org/2000/svg">
<rect width="75" height="75" rx="10" fill="white"/>
<path d="M38.0309 66C37.5166 66 36.9925 65.8728 36.4618 65.6183C26.3214 60.76 19.3289 52.4095 15.6796 40.8011C13.7329 34.6102 12.8409 28.0208 13.0232 21.2206C13.046 20.3634 13.072 19.4125 13.7492 18.6625C14.2472 18.11 14.7193 17.7518 15.1848 17.5676C21.1095 15.2506 28.9354 12.2037 36.9208 9.17691C37.5882 8.9258 38.4932 8.94254 39.2354 9.22379C43.8157 10.9615 48.4644 12.7528 52.9568 14.4872C55.4927 15.4649 58.0286 16.4426 60.5645 17.4169C62.1336 18.0196 62.9475 19.1446 62.9865 20.7585C63.0061 21.5386 62.9995 22.3255 62.9963 23.0889C62.9963 23.4337 62.993 23.7753 62.993 24.1201V24.1335C62.7359 33.9004 60.685 42.1672 56.7232 49.4161C52.7386 56.7053 46.9083 62.1796 39.3982 65.6853C38.9522 65.8929 38.4964 65.9966 38.0342 65.9966L38.0309 66ZM37.9756 10.0039C37.7151 10.0039 37.4645 10.0408 37.2594 10.1178C29.2772 13.1479 21.4546 16.1915 15.5331 18.5085C15.2141 18.6324 14.856 18.9136 14.4653 19.3455C14.0389 19.8176 14.0226 20.504 14.0031 21.2306C13.8208 27.9338 14.6997 34.4093 16.6106 40.4931C20.172 51.8269 26.992 59.9732 36.8785 64.7109C37.6403 65.0759 38.3109 65.096 38.9945 64.7745C46.3126 61.3593 51.9899 56.0256 55.8703 48.9273C59.7507 41.829 61.7625 33.7129 62.0164 24.1168C62.0164 23.7719 62.0164 23.4304 62.0197 23.0855C62.0229 22.3288 62.0295 21.5487 62.0099 20.7853C61.9806 19.5866 61.4142 18.8165 60.2227 18.3612C57.6868 17.3868 55.1509 16.4091 52.6149 15.4314C48.1225 13.697 43.4771 11.9057 38.9001 10.168C38.6169 10.0609 38.2913 10.0073 37.9788 10.0073L37.9756 10.0039ZM37.2757 44.9328C36.439 44.9328 35.6252 44.5746 34.9806 43.9217C33.1479 42.0634 31.3216 40.1884 29.5572 38.3435C28.9224 37.6805 28.5773 36.8301 28.5871 35.9495C28.5936 35.0823 28.9419 34.262 29.567 33.6325C30.8431 32.3468 32.7865 32.3702 34.0952 33.6827C34.8993 34.493 35.6708 35.2999 36.4879 36.1537C36.7223 36.3982 36.9566 36.6459 37.1943 36.8937L42.9856 30.6693C44.1901 29.3735 45.3945 28.0744 46.6055 26.7853C47.5366 25.7909 48.7052 25.503 49.9813 25.9483C51.2314 26.3835 51.9736 27.3579 52.1234 28.7608C52.2276 29.7218 51.9281 30.609 51.264 31.3256L49.7991 32.9026C46.4493 36.512 42.9856 40.2453 39.5609 43.8982C38.9457 44.5545 38.1481 44.9228 37.318 44.9328C37.305 44.9328 37.2919 44.9328 37.2789 44.9328H37.2757ZM31.7839 33.6961C31.2305 33.6961 30.6836 33.9138 30.2473 34.3524C29.8111 34.7943 29.567 35.3635 29.5605 35.9629C29.5539 36.5756 29.8014 37.1716 30.2506 37.6404C32.0117 39.4819 33.8348 41.3536 35.6643 43.2085C36.1265 43.6739 36.6962 43.9317 37.2724 43.9317C37.2822 43.9317 37.2887 43.9317 37.2985 43.9317C37.8747 43.925 38.4118 43.6705 38.8513 43.2018C42.2759 39.5522 45.7364 35.8189 49.0861 32.2095L50.551 30.6325C51.0166 30.1302 51.2184 29.5376 51.1468 28.8713C51.0393 27.8702 50.538 27.2072 49.6623 26.9025C48.7573 26.5878 47.963 26.782 47.3022 27.4851C46.0912 28.7742 44.89 30.07 43.6855 31.3657L37.2008 38.3368L36.8492 37.9718C36.4911 37.6002 36.1395 37.2319 35.788 36.8636C34.9741 36.0131 34.2059 35.2095 33.4083 34.4093C32.9395 33.9405 32.3601 33.7028 31.7839 33.7028V33.6961Z" fill="#0063C7"/>
</svg>
