<svg width="75" height="75" viewBox="0 0 75 75" fill="none" xmlns="http://www.w3.org/2000/svg">
<rect width="75" height="75" rx="10" fill="white"/>
<path d="M59.5394 59C59.4227 59 59.3029 58.9542 59.2139 58.8657L43.3929 43.145C40.405 46.4009 36.1028 48.4483 31.3307 48.4483C22.3239 48.4453 15 41.1678 15 32.2242C15 23.2806 22.3239 16 31.3276 16C40.3313 16 47.6552 23.2775 47.6552 32.2242C47.6552 36.0964 46.2826 39.6573 43.9948 42.4493L59.8649 58.2188C59.9539 58.3073 60 58.4263 60 58.5423C60 58.6582 59.9539 58.7772 59.8649 58.8657C59.7758 58.9542 59.6561 59 59.5394 59ZM31.3276 16.9154C22.8306 16.9154 15.9213 23.781 15.9213 32.2242C15.9213 40.6673 22.8306 47.5329 31.3276 47.5329C39.8246 47.5329 46.734 40.6673 46.734 32.2242C46.734 23.781 39.8216 16.9154 31.3276 16.9154Z" fill="#0063C7" stroke="#0063C7"/>
</svg>
