<svg width="75" height="75" viewBox="0 0 75 75" fill="none" xmlns="http://www.w3.org/2000/svg">
<rect width="75" height="75" rx="10" fill="white"/>
<path d="M36.0602 66C35.1117 66 34.273 65.6631 33.6839 65.0219C32.9185 64.1877 32.7121 62.9905 33.1182 61.7343C34.0001 59.0061 34.9786 56.0162 36.2 52.3296C36.3597 51.8454 36.5527 51.466 36.789 51.1618C37.3714 50.4225 38.1802 49.9907 39.0721 49.9449C40.0306 49.8991 40.9591 50.2883 41.7013 51.0505C41.9908 51.3482 42.2704 51.6524 42.5532 51.9632C42.5732 51.9861 42.5932 52.0057 42.6131 52.0286L46.6368 48.499C48.2476 47.0858 49.8617 45.6694 51.4758 44.2595C52.9401 42.9804 53.5458 41.4135 53.2763 39.6078C52.9501 37.4455 51.6721 35.8852 49.5721 35.0968C47.572 34.3411 45.685 34.7304 43.9677 36.245C41.5182 38.4105 39.0155 40.599 36.596 42.7122L34.7955 44.2856C31.3909 47.2657 27.5237 48.3223 23.3037 47.4326C18.478 46.4119 15.1499 43.4548 13.6823 38.8718C12.1314 34.0369 13.2363 29.624 16.8772 26.1108C19.0105 24.0532 21.2902 22.0872 23.4967 20.1833C24.4918 19.3262 25.4836 18.4692 26.4687 17.6023C26.5053 17.5696 26.5419 17.5369 26.5785 17.5042L26.5219 17.4453C26.259 17.164 26.0161 16.8957 25.7731 16.6275C24.8978 15.6592 24.6016 14.4848 24.9611 13.4053C25.3205 12.3258 26.2657 11.5506 27.557 11.2758C28.2825 11.122 29.0113 10.9683 29.7369 10.8145C30.7652 10.5986 31.7936 10.3827 32.8186 10.1603C33.9469 9.91495 35.0684 9.66306 36.1933 9.41118L37.6776 9.08079C38.1901 8.95648 38.4863 8.98919 38.8258 9.08733C39.8642 9.3752 40.6396 9.93457 41.0623 10.7066C41.4683 11.4524 41.5349 12.3945 41.2387 13.2908C40.8859 14.3736 40.5331 15.4564 40.1837 16.5424C39.5114 18.6131 38.8191 20.7525 38.1136 22.8526C37.7176 24.0368 36.8589 24.8513 35.7607 25.0934C34.6624 25.3322 33.4876 24.9364 32.6156 24.0303C32.3361 23.7391 32.0632 23.4447 31.7869 23.1438L31.7171 23.0685L29.9166 24.6452C27.4238 26.8304 24.9311 29.0123 22.4417 31.2008C21.5332 31.9989 20.984 33.0163 20.7611 34.315C20.5114 35.7543 20.9541 37.2525 21.9758 38.4203C22.9942 39.5849 24.4253 40.2424 25.9029 40.213C27.3706 40.1901 28.6419 39.6503 29.9099 38.5218C31.747 36.8829 33.6307 35.2375 35.4511 33.6444C36.606 32.6368 37.7575 31.6293 38.9057 30.6152C41.0223 28.7506 43.3919 27.6482 45.9479 27.3407C50.3309 26.8108 54.1249 28.1487 57.2267 31.3153C59.7294 33.8701 61.0673 37.1544 60.9974 40.5663C60.9275 43.9127 59.4964 47.0662 56.9671 49.4476C54.9969 51.3024 52.9168 53.0983 50.9034 54.8386C49.9815 55.6368 49.0563 56.435 48.1411 57.2397C48.0113 57.3542 47.8815 57.4687 47.7484 57.5864C47.765 57.6061 47.785 57.6257 47.8016 57.6453C48.0778 57.943 48.3441 58.2309 48.6003 58.522C49.4457 59.487 49.7252 60.6516 49.3658 61.7147C49.013 62.7615 48.1045 63.5171 46.8697 63.7887C43.6182 64.5083 40.2735 65.2182 36.9288 65.8986C36.6293 65.9607 36.3364 65.9902 36.0569 65.9902L36.0602 66ZM39.2318 50.923C39.1952 50.923 39.1619 50.923 39.1253 50.923C38.5296 50.9524 37.9838 51.2501 37.5811 51.7604C37.418 51.9697 37.2716 52.2609 37.1485 52.6305C35.9271 56.3139 34.9486 59.3005 34.07 62.0255C33.7738 62.9414 33.9036 63.7919 34.4261 64.3579C34.9453 64.9205 35.784 65.1331 36.7291 64.9401C40.0705 64.2597 43.4086 63.5499 46.6534 62.8335C47.5387 62.6372 48.181 62.1171 48.4206 61.4072C48.6669 60.6777 48.4572 59.8599 47.8449 59.1632C47.5953 58.8786 47.3357 58.5972 47.0661 58.3094C46.9363 58.172 46.8065 58.0313 46.6734 57.8841L46.3406 57.521L46.9762 56.9584C47.1493 56.8046 47.3157 56.6574 47.4788 56.5135C48.3973 55.7055 49.3225 54.9073 50.2477 54.1091C52.2512 52.3786 54.3246 50.586 56.2782 48.7476C58.6145 46.5461 59.9357 43.6379 59.999 40.5532C60.0622 37.403 58.8242 34.3673 56.5078 32.0022C53.6357 29.0679 50.1246 27.8314 46.0677 28.3188C43.7181 28.6034 41.5315 29.624 39.568 31.3512C38.4165 32.3653 37.2649 33.3729 36.1101 34.3837C34.2896 35.9735 32.4093 37.6189 30.5755 39.2545C29.1411 40.5368 27.6169 41.1714 25.9162 41.2009C24.139 41.2238 22.4284 40.4518 21.217 39.0681C20.0023 37.6778 19.4764 35.8884 19.7759 34.158C20.0355 32.6532 20.7078 31.4134 21.7761 30.4746C24.2655 28.2861 26.7582 26.1009 29.251 23.9158L31.2378 22.1755C31.2911 22.1297 31.3476 22.0904 31.4209 22.0446L31.8502 21.7568L32.5291 22.4862C32.802 22.7807 33.0682 23.0718 33.3445 23.3564C33.9835 24.0204 34.7855 24.305 35.5477 24.1382C36.2965 23.9746 36.8855 23.3956 37.1718 22.5484C37.874 20.4548 38.5695 18.3154 39.2385 16.248C39.5913 15.162 39.9407 14.0792 40.2968 12.9964C40.5065 12.352 40.4699 11.6879 40.1903 11.1776C39.8974 10.6379 39.3483 10.2552 38.5562 10.036C38.3699 9.98037 38.26 9.95747 37.9206 10.0393H37.9106L36.4229 10.3729C35.2947 10.6248 34.1698 10.8767 33.0383 11.122C32.0099 11.3445 30.9782 11.5604 29.9498 11.7763C29.2243 11.93 28.4988 12.0805 27.7733 12.2375C26.8381 12.4371 26.1625 12.9735 25.9162 13.7128C25.67 14.4489 25.8929 15.2765 26.5253 15.9798C26.7649 16.2448 27.0078 16.5097 27.2674 16.7878L27.983 17.5631L27.4671 18.0407C27.3573 18.1421 27.2508 18.2435 27.141 18.3383C26.1559 19.2085 25.1574 20.0688 24.1623 20.9291C21.9658 22.8232 19.6961 24.7826 17.5827 26.8206C14.2214 30.0558 13.203 34.122 14.6341 38.5839C16.0086 42.8692 18.9938 45.5254 23.5134 46.4806C27.4072 47.3017 30.9782 46.3203 34.1332 43.5627L35.9337 41.9893C38.3532 39.8728 40.8526 37.6876 43.3021 35.5253C45.3222 33.7425 47.552 33.2911 49.9316 34.1907C52.3844 35.1164 53.8853 36.9418 54.2647 39.477C54.5842 41.6 53.8487 43.5136 52.1414 45.0053C50.5273 46.4152 48.9165 47.8284 47.3024 49.2448L42.5366 53.4222L42.2038 53.0623C42.0707 52.9184 41.9409 52.7745 41.8078 52.6305C41.5315 52.3263 41.2586 52.0286 40.9791 51.7408C40.4699 51.2174 39.8542 50.9328 39.2285 50.9328L39.2318 50.923Z" fill="#0063C7"/>
</svg>
