<svg width="310" height="150" viewBox="0 0 310 150" fill="none" xmlns="http://www.w3.org/2000/svg">
<rect width="310" height="150" rx="75" fill="white"/>
<path d="M42.282 88.3856C40.5596 88.3856 38.9657 88.0514 37.5003 87.383C36.0607 86.7146 34.8782 85.7506 33.9527 84.4909L36.8062 81.0589C37.5518 82.0872 38.3616 82.8585 39.2356 83.3726C40.1354 83.8868 41.1123 84.1438 42.1663 84.1438C44.9684 84.1438 46.3695 82.4857 46.3695 79.1694V65.2101H36.7677V61.0069H51.3825V78.8995C51.3825 82.0872 50.5984 84.4652 49.0302 86.0334C47.4878 87.6015 45.2384 88.3856 42.282 88.3856ZM54.0315 88L66.1784 61.0069H71.1143L83.2997 88H78.0553L67.6052 63.6677H69.6104L59.1987 88H54.0315ZM59.6229 81.753L60.9726 77.8197H75.5488L76.8985 81.753H59.6229ZM86.7326 88V61.0069H97.8383C100.229 61.0069 102.273 61.3925 103.97 62.1638C105.692 62.935 107.016 64.0404 107.941 65.4801C108.867 66.9197 109.33 68.6292 109.33 70.6087C109.33 72.5882 108.867 74.2978 107.941 75.7374C107.016 77.1513 105.692 78.2439 103.97 79.0152C102.273 79.7607 100.229 80.1334 97.8383 80.1334H89.509L91.7456 77.8583V88H86.7326ZM104.394 88L97.5684 78.2054H102.928L109.792 88H104.394ZM91.7456 78.3982L89.509 76.0074H97.607C99.8178 76.0074 101.476 75.5318 102.581 74.5806C103.713 73.6294 104.278 72.3054 104.278 70.6087C104.278 68.8863 103.713 67.5624 102.581 66.6369C101.476 65.7114 99.8178 65.2487 97.607 65.2487H89.509L91.7456 62.7807V78.3982ZM113.397 79.2851V75.2747H124.001V79.2851H113.397ZM142.42 88.3856C140.363 88.3856 138.448 88.0514 136.674 87.383C134.926 86.6889 133.397 85.7249 132.086 84.4909C130.8 83.2312 129.798 81.753 129.078 80.0563C128.358 78.3596 127.998 76.5087 127.998 74.5035C127.998 72.4983 128.358 70.6473 129.078 68.9506C129.798 67.2539 130.813 65.7885 132.124 64.5546C133.435 63.2949 134.965 62.3309 136.713 61.6625C138.461 60.9683 140.376 60.6213 142.459 60.6213C144.669 60.6213 146.687 61.0069 148.513 61.7781C150.338 62.5237 151.88 63.642 153.14 65.133L149.901 68.1794C148.924 67.1253 147.831 66.3413 146.623 65.8271C145.415 65.2872 144.104 65.0173 142.69 65.0173C141.276 65.0173 139.978 65.2487 138.795 65.7114C137.638 66.1742 136.623 66.8297 135.749 67.6781C134.901 68.5264 134.232 69.529 133.744 70.6859C133.281 71.8427 133.05 73.1152 133.05 74.5035C133.05 75.8917 133.281 77.1642 133.744 78.321C134.232 79.4779 134.901 80.4805 135.749 81.3289C136.623 82.1772 137.638 82.8328 138.795 83.2955C139.978 83.7582 141.276 83.9896 142.69 83.9896C144.104 83.9896 145.415 83.7325 146.623 83.2184C147.831 82.6785 148.924 81.8687 149.901 80.789L153.14 83.8739C151.88 85.3393 150.338 86.4575 148.513 87.2288C146.687 88 144.657 88.3856 142.42 88.3856ZM153.561 88L165.708 61.0069H170.644L182.829 88H177.585L167.135 63.6677H169.14L158.728 88H153.561ZM159.152 81.753L160.502 77.8197H175.078L176.428 81.753H159.152ZM186.262 88V61.0069H197.368C199.759 61.0069 201.802 61.3925 203.499 62.1638C205.222 62.935 206.545 64.0404 207.471 65.4801C208.396 66.9197 208.859 68.6292 208.859 70.6087C208.859 72.5882 208.396 74.2978 207.471 75.7374C206.545 77.1513 205.222 78.2439 203.499 79.0152C201.802 79.7607 199.759 80.1334 197.368 80.1334H189.039L191.275 77.8583V88H186.262ZM203.923 88L197.098 78.2054H202.458L209.322 88H203.923ZM191.275 78.3982L189.039 76.0074H197.136C199.347 76.0074 201.005 75.5318 202.111 74.5806C203.242 73.6294 203.808 72.3054 203.808 70.6087C203.808 68.8863 203.242 67.5624 202.111 66.6369C201.005 65.7114 199.347 65.2487 197.136 65.2487H189.039L191.275 62.7807V78.3982ZM227.077 88.3856C224.969 88.3856 223.028 88.0514 221.255 87.383C219.506 86.6889 217.977 85.7249 216.666 84.4909C215.355 83.2312 214.339 81.753 213.619 80.0563C212.9 78.3596 212.54 76.5087 212.54 74.5035C212.54 72.4983 212.9 70.6473 213.619 68.9506C214.339 67.2539 215.355 65.7885 216.666 64.5546C218.003 63.2949 219.558 62.3309 221.332 61.6625C223.106 60.9683 225.046 60.6213 227.154 60.6213C229.442 60.6213 231.499 60.9941 233.324 61.7396C235.175 62.4851 236.731 63.5777 237.99 65.0173L234.828 68.1022C233.774 67.0482 232.63 66.277 231.396 65.7885C230.188 65.2744 228.851 65.0173 227.386 65.0173C225.972 65.0173 224.661 65.2487 223.453 65.7114C222.244 66.1742 221.203 66.8297 220.329 67.6781C219.455 68.5264 218.774 69.529 218.285 70.6859C217.823 71.8427 217.591 73.1152 217.591 74.5035C217.591 75.866 217.823 77.1256 218.285 78.2825C218.774 79.4393 219.455 80.4548 220.329 81.3289C221.203 82.1772 222.231 82.8328 223.414 83.2955C224.597 83.7582 225.908 83.9896 227.347 83.9896C228.684 83.9896 229.969 83.7839 231.203 83.3726C232.463 82.9356 233.659 82.2158 234.79 81.2132L237.643 84.9536C236.229 86.0848 234.584 86.946 232.707 87.5373C230.856 88.1028 228.98 88.3856 227.077 88.3856ZM232.9 84.2981V74.195H237.643V84.9536L232.9 84.2981ZM256.903 88.3856C254.795 88.3856 252.854 88.0386 251.08 87.3445C249.307 86.6503 247.764 85.6863 246.453 84.4523C245.142 83.1927 244.126 81.7273 243.407 80.0563C242.687 78.3596 242.327 76.5087 242.327 74.5035C242.327 72.4983 242.687 70.6602 243.407 68.9892C244.126 67.2924 245.142 65.8271 246.453 64.5931C247.764 63.3335 249.307 62.3566 251.08 61.6625C252.854 60.9683 254.782 60.6213 256.865 60.6213C258.973 60.6213 260.901 60.9683 262.649 61.6625C264.423 62.3566 265.965 63.3335 267.276 64.5931C268.587 65.8271 269.603 67.2924 270.323 68.9892C271.042 70.6602 271.402 72.4983 271.402 74.5035C271.402 76.5087 271.042 78.3596 270.323 80.0563C269.603 81.753 268.587 83.2184 267.276 84.4523C265.965 85.6863 264.423 86.6503 262.649 87.3445C260.901 88.0386 258.986 88.3856 256.903 88.3856ZM256.865 83.9896C258.227 83.9896 259.487 83.7582 260.644 83.2955C261.801 82.8328 262.803 82.1772 263.651 81.3289C264.5 80.4548 265.155 79.4522 265.618 78.321C266.107 77.1642 266.351 75.8917 266.351 74.5035C266.351 73.1152 266.107 71.8556 265.618 70.7244C265.155 69.5676 264.5 68.565 263.651 67.7166C262.803 66.8426 261.801 66.1742 260.644 65.7114C259.487 65.2487 258.227 65.0173 256.865 65.0173C255.502 65.0173 254.242 65.2487 253.086 65.7114C251.954 66.1742 250.952 66.8426 250.078 67.7166C249.229 68.565 248.561 69.5676 248.073 70.7244C247.61 71.8556 247.379 73.1152 247.379 74.5035C247.379 75.866 247.61 77.1256 248.073 78.2825C248.561 79.4393 249.229 80.4548 250.078 81.3289C250.926 82.1772 251.929 82.8328 253.086 83.2955C254.242 83.7582 255.502 83.9896 256.865 83.9896Z" fill="#1E1E1E"/>
</svg>
